<svg width="1024" height="1024" viewBox="0 0 1024 1024" fill="none" xmlns="http://www.w3.org/2000/svg">
<rect width="1024" height="1024" fill="#C2C2C2"/>
<mask id="path-1-inside-1_1984_466" fill="white">
<path fill-rule="evenodd" clip-rule="evenodd" d="M531.483 334.569L531.524 357.139L523.65 428.356L515.775 499.572L516.665 500.462L517.556 501.351L518.01 500.774L518.462 500.194L562.332 445.333L606.201 390.472L622.996 373.821L639.79 357.169L653.326 370.736L666.861 384.304L647.34 403.36L627.819 422.417L618.868 429.567L609.917 436.717L566.861 471.028L523.806 505.339L523.36 507.265L522.913 509.193L526.832 508.482L530.75 507.771L598.768 500.162L666.786 492.556H689.393H712V511.306V530.056H685.108H658.215L595.872 523.142L533.528 516.226L529.014 515.59L524.5 514.953V516.704V518.457L565.125 550.983L605.75 583.51L621.722 596.929L637.694 610.35L652.251 625.063L666.808 639.775L653.765 652.874L640.721 665.972L623.024 649.056L605.326 632.139L594.574 618.25L583.822 604.361L572.346 590.472L560.869 576.583L538.865 548.932L516.861 521.281L516.449 523.394L516.036 525.508L523.74 595.242L531.444 664.975V688.487V712H512.694H493.944L493.947 683.875L493.951 655.75L500.892 591.247L507.833 526.743V524.811V522.879L506.592 523.343L505.351 523.806L485.515 548.806L465.681 573.806L459.458 581.444L453.235 589.083L434.885 612L416.535 634.917L400.03 650.282L383.528 665.647L370.333 652.779L357.139 639.912L374.85 622.136L392.561 604.361L446.617 561.306L500.671 518.25L500.779 516.497L500.889 514.744L495.681 515.506L490.472 516.267L427.278 523.157L364.083 530.046L338.042 530.05L312 530.056V512.065V494.074L335.264 493.65L358.528 493.226L425.889 500.492L493.25 507.757L497.069 508.456L500.889 509.153V507.374V505.594L471.497 482.061L442.107 458.528L421.999 442.668L401.889 426.807L380.208 406.007L358.528 385.207L358.174 384.346L357.819 383.486L371.024 370.337L384.226 357.189L400.324 373.136L416.421 389.083L445.049 424.5L473.676 459.917L490.347 480.583L507.018 501.25L507.475 499.879L507.932 498.51L500.938 432.883L493.944 367.257V339.628V312H512.694H531.444L531.483 334.569Z"/>
</mask>
<path fill-rule="evenodd" clip-rule="evenodd" d="M531.483 334.569L531.524 357.139L523.65 428.356L515.775 499.572L516.665 500.462L517.556 501.351L518.01 500.774L518.462 500.194L562.332 445.333L606.201 390.472L622.996 373.821L639.79 357.169L653.326 370.736L666.861 384.304L647.34 403.36L627.819 422.417L618.868 429.567L609.917 436.717L566.861 471.028L523.806 505.339L523.36 507.265L522.913 509.193L526.832 508.482L530.75 507.771L598.768 500.162L666.786 492.556H689.393H712V511.306V530.056H685.108H658.215L595.872 523.142L533.528 516.226L529.014 515.59L524.5 514.953V516.704V518.457L565.125 550.983L605.75 583.51L621.722 596.929L637.694 610.35L652.251 625.063L666.808 639.775L653.765 652.874L640.721 665.972L623.024 649.056L605.326 632.139L594.574 618.25L583.822 604.361L572.346 590.472L560.869 576.583L538.865 548.932L516.861 521.281L516.449 523.394L516.036 525.508L523.74 595.242L531.444 664.975V688.487V712H512.694H493.944L493.947 683.875L493.951 655.75L500.892 591.247L507.833 526.743V524.811V522.879L506.592 523.343L505.351 523.806L485.515 548.806L465.681 573.806L459.458 581.444L453.235 589.083L434.885 612L416.535 634.917L400.03 650.282L383.528 665.647L370.333 652.779L357.139 639.912L374.85 622.136L392.561 604.361L446.617 561.306L500.671 518.25L500.779 516.497L500.889 514.744L495.681 515.506L490.472 516.267L427.278 523.157L364.083 530.046L338.042 530.05L312 530.056V512.065V494.074L335.264 493.65L358.528 493.226L425.889 500.492L493.25 507.757L497.069 508.456L500.889 509.153V507.374V505.594L471.497 482.061L442.107 458.528L421.999 442.668L401.889 426.807L380.208 406.007L358.528 385.207L358.174 384.346L357.819 383.486L371.024 370.337L384.226 357.189L400.324 373.136L416.421 389.083L445.049 424.5L473.676 459.917L490.347 480.583L507.018 501.25L507.475 499.879L507.932 498.51L500.938 432.883L493.944 367.257V339.628V312H512.694H531.444L531.483 334.569Z" fill="black" stroke="black" stroke-width="2.77778" mask="url(#path-1-inside-1_1984_466)"/>
</svg>
