<svg version="1" xmlns="http://www.w3.org/2000/svg" width="933.333" height="933.333" viewBox="0 0 700.000000 700.000000"><style>@media (prefers-color-scheme: dark) {.a { fill: #f0f0f0 }}</style><path class="a" d="M64.3 7.8l-4.3.3V31l5.3.1c2.8.1 6.1.3 7.2.4 1.1.1 4.8.5 8.2.9 18.1 1.9 33.4 5 39.9 8.1 9.1 4.3 18.3 14.9 21.3 24.5 2.7 8.9 2.7 9.3 3.6 145l.6 98.5-6.3 2.5c-13.1 5.1-39.3 19.8-44.8 25.1-.8.8-2.8 2.5-4.5 3.7-8.4 6.5-21.4 20.3-29.1 30.8-11.2 15.3-18.3 28.2-24.9 45.2-3.2 8.3-8 24.9-8.9 31.1-.3 1.4-.7 4.6-1.1 7.1-.4 2.5-.9 5.8-1.2 7.5-1.2 7.3-.2 39.1 1.7 50.5.5 3 1.2 7.1 1.5 9 .8 4.9 4.2 16.3 7.2 24 5.6 14.7 19.2 40.5 25.3 48.4 8 10.3 28.1 30.8 40 40.7 21 17.7 65.2 39.3 95 46.4.8.2 3.8.9 6.5 1.5 2.8.6 5.7 1.3 6.5 1.5 10 2.5 22.5 4.8 32 5.9 20.6 2.5 78.6 2.5 100 .1 1.9-.2 6-.6 9-1 3-.3 6.6-.7 8-1 1.4-.3 4.1-.7 6-1 1.9-.3 7.1-1.3 11.5-2.1s9.1-1.8 10.5-2c18.6-3.5 50.3-13.2 68.9-21 54.7-23.1 96.2-52.6 134-95.4 22.9-25.9 43.8-59.8 58.4-94.5 5.5-13.2 13.5-38.8 17.3-55.5 4.4-19.7 6.7-32.1 7.8-43.3.2-1.8.8-6.4 1.2-10.2 1.2-9 1.2-75.7.1-85.5-.5-4.1-1-8.9-1.2-10.5-.2-2.5-2.7-18.5-4-26-6.3-36.2-21.9-75.2-43.2-108-15.9-24.3-32.5-41.7-58.7-61.4-29.3-22-62.1-37.1-107.7-49.5-7-1.9-14.3-3.7-16.4-4-2-.4-4-.8-4.4-1.1-.4-.2-3-.7-5.7-1-2.7-.4-6-.8-7.4-1-1.4-.2-5.4-.9-9-1.4-3.6-.6-9.2-1.3-12.5-1.7-3.3-.3-6.3-.8-6.7-1-1-.7-53.9-1.3-168.3-1.9-56.1-.4-115-.7-131-.8-15.9-.1-30.9-.1-33.2.1zM350 49.4c12.4.4 25 .8 28 1.1 9.8.8 15.4 1.5 18 2 1.4.3 4.5.8 7 1.1 26.4 3.4 60.3 16 82.5 30.7 17.1 11.3 39.1 34 49.2 50.7 12.5 20.5 21.4 41.3 27.3 63.5 1.2 4.4 2.7 10.2 3.5 13 1.6 6.2 5.2 24.5 5.9 30.5.3 2.5 1 7.9 1.6 12.1 2 15.8 2.5 29.6 2.5 68.4 0 35-.7 55.6-2.1 62.9-.2 1.1-.6 4.5-1 7.4-.3 2.9-.7 6.3-1 7.5-.2 1.2-.6 3.8-.9 5.7-.8 6.4-5.5 28.7-8.5 40.2-6.4 25.3-16.5 51.6-27.7 72.8-6.3 11.9-20.1 33.1-26.4 40.5-7.1 8.4-29 29.8-36.4 35.7-22.1 17.6-48.4 31.1-82.5 42.5-9.4 3.1-33.6 8.4-44.5 9.7-2.7.4-6.6.8-8.5 1.1-8.4 1-27.9 1.8-44.7 1.8-17.7-.1-43.1-1.1-44.2-1.8-.3-.2-3.1-.6-6.1-.9-6.4-.7-22.3-4.2-36.5-8.1-20.1-5.4-42.8-15.7-60.8-27.5-6-3.9-11.5-7.6-12.2-8.3-.7-.7-3-2.5-5.1-4.2-3.9-2.9-19.1-17.9-22.9-22.5-9.2-11.2-19.5-29.8-24.6-44.7-5.8-16.6-7.1-25.6-7.2-48.3 0-11.3.3-22.9.7-25.9 1.2-9.9 5.4-26.2 8.5-33.6 6.6-15.5 14.8-29 24.1-39.7 8.7-10.1 16.7-16.8 31.6-26.6 1.6-1 10.9-5.6 18.9-9.2 5.8-2.6 17.1-5.5 32.5-8.5 3.7-.7 28.9-1 40.5-.5 29.9 1.4 60.4 17.9 74 40 4 6.6 5.4 12.1 5.5 21 0 9.9-1.5 13.5-10.3 25.5-13.3 18-18.2 25.7-20 31.5-2.1 6.6-2.8 18-1.6 24.7 3 16.3 19.3 33 36.4 37.2 7.5 1.9 25.4 2.2 32.5.5 22-5.1 38.8-24.4 44.4-51 3.5-16.3 1.3-48.5-4.4-66.2-4.3-13.2-15-32-24-42.2-20.4-22.9-37.6-35.6-62.6-46-13.1-5.4-31.5-10.9-45.9-13.7-2.2-.4-4.2-.8-4.5-.8-.3-.1-2.9-.5-5.7-1-3.8-.5-5.3-1.2-5.4-2.4-.7-7.7-.8-25.1-1.2-120.5-.5-108.3-.5-108.9 1.6-112.5 5.1-8.9 11.7-13.4 22.2-14.9 5.5-.8 55.3-.7 90.5.2z"/></svg>