<svg width="1024" height="1024" viewBox="0 0 1024 1024" fill="none" xmlns="http://www.w3.org/2000/svg">
<g clip-path="url(#clip0_1991_313)">
<rect width="1024" height="1024" fill="#C2C2C2"/>
<path d="M751.9 630.654H272.412C268.412 630.654 265.17 627.412 265.17 623.412V401.434C265.17 397.434 268.413 394.192 272.413 394.192H751.9C755.9 394.192 759.14 397.434 759.14 401.434V623.41C759.142 627.41 755.9 630.654 751.9 630.654Z" fill="#010101"/>
<path d="M745.674 429.232H568.174C565.414 429.232 563.174 426.992 563.174 424.232V409.276C563.174 406.516 565.414 404.276 568.174 404.276H745.674C748.434 404.276 750.674 406.516 750.674 409.276V424.232C750.674 426.994 748.434 429.232 745.674 429.232Z" fill="#8A653C"/>
<path d="M283.174 611.732H338.174" stroke="#2B4261" stroke-width="20" stroke-linecap="round"/>
<path d="M417.79 611.732H472.79" stroke="#8A653C" stroke-width="20" stroke-linecap="round"/>
<path d="M552.79 611.732H607.79" stroke="#747F8A" stroke-width="20" stroke-linecap="round"/>
<path d="M687.79 611.732H742.79" stroke="#CC1F00" stroke-width="20" stroke-linecap="round"/>
<path d="M443.064 612.856C442.548 612.856 442.337 612.449 442.597 612.013L446.077 605.809C446.334 605.372 446.757 605.372 447.014 605.809L450.694 612.012C450.951 612.447 450.739 612.855 450.227 612.855H443.064V612.856Z" fill="#CDD0C2"/>
<path d="M442.377 614.625H450.804V616.732H442.377V614.625Z" fill="#CDD0C2"/>
<path d="M730.408 609.232C730.408 607.852 729.288 606.732 727.908 606.732H725.408C724.028 606.732 722.908 607.852 722.908 609.232C722.908 609.482 722.962 609.768 723.088 610.049C723.338 610.605 723.864 610.989 724.452 611.149L728.762 612.321C729.437 612.505 730.029 612.967 730.282 613.621C730.364 613.834 730.407 614.044 730.407 614.231C730.407 615.611 729.287 616.731 727.905 616.731H725.405C724.027 616.731 722.905 615.611 722.905 614.231" stroke="#CDD0C2" stroke-width="1.5" stroke-linecap="square"/>
<path d="M700.86 616.73V606.732H705.86C707.238 606.732 708.36 607.852 708.36 609.232C708.36 610.612 707.242 611.732 705.86 611.732H700.86" stroke="#CDD0C2" stroke-width="1.5" stroke-linecap="square"/>
<path d="M704.358 611.983L708.108 616.483V616.733" stroke="#CDD0C2" stroke-width="1.5" stroke-linecap="square"/>
<path d="M740.507 616.732H733.757V606.732H740.507M733.757 611.73L739.507 611.732" stroke="#CDD0C2" stroke-width="1.5" stroke-linecap="square"/>
<path d="M711.257 616.732V616.482L715.507 606.732H716.007L720.257 616.482V616.732M712.757 613.232H718.757" stroke="#CDD0C2" stroke-width="1.5" stroke-linecap="square"/>
<path d="M697.107 616.732H690.357V606.732H697.107M690.358 611.73L696.108 611.732" stroke="#000005" stroke-width="0.1" stroke-linecap="square"/>
<path d="M697.107 616.732H690.357V606.732H697.107M690.358 611.73L696.108 611.732" stroke="#CDD0C2" stroke-width="1.5" stroke-linecap="square"/>
<path d="M289.232 616.73V606.732H289.982L295.482 616.732H296.232V606.732" stroke="#CDD0C2" stroke-width="1.5" stroke-linecap="square"/>
<path d="M312.087 616.732V606.732H312.783L315.913 612.732H316.261L319.393 606.732H320.088V616.732" stroke="#CDD0C2" stroke-width="1.5" stroke-linecap="square"/>
<path d="M331.054 616.732H324.304V606.732H331.054M324.304 611.73L330.054 611.732" stroke="#CDD0C2" stroke-width="1.5" stroke-linecap="square"/>
<path d="M299.828 616.732V616.482L304.078 606.732H304.578L308.828 616.482V616.732M301.328 613.232H307.328" stroke="#CDD0C2" stroke-width="1.5" stroke-linecap="square"/>
<path d="M586.674 606.732V606.982L588.732 616.732H589.246L591.046 606.732H591.302L593.102 616.732H593.617L595.674 606.982V606.732" stroke="#CDD0C2" stroke-width="1.5" stroke-linecap="square"/>
<path d="M566.53 616.73V606.732H567.28L572.78 616.732H573.53V606.732" stroke="#CDD0C2" stroke-width="1.5" stroke-linecap="square"/>
<path d="M583.862 616.732H577.112V606.732H583.862M577.112 611.73L582.862 611.732" stroke="#CDD0C2" stroke-width="1.5" stroke-linecap="square"/>
<path d="M490.727 566.732H438.227C435.467 566.732 433.227 564.492 433.227 561.732V554.232C433.227 551.472 435.467 549.232 438.227 549.232H490.727C493.487 549.232 495.727 551.472 495.727 554.232V561.732C495.727 564.494 493.489 566.732 490.727 566.732Z" fill="#E52817"/>
<path d="M458.237 554.232V554.42L459.78 561.732H460.165L461.515 554.232H461.708L463.058 561.732H463.443L464.987 554.42V554.232" stroke="#000005" stroke-width="1.5" stroke-linecap="square"/>
<path d="M453.07 554.232C454.365 554.232 455.415 555.282 455.415 556.576V559.388C455.415 560.682 454.365 561.732 453.071 561.732H452.134C450.84 561.732 449.79 560.682 449.79 559.388V556.576C449.79 555.282 450.838 554.232 452.133 554.232H453.07Z" stroke="#000005" stroke-width="1.5" stroke-linecap="square"/>
<path d="M442.66 554.233V561.733H447.348" stroke="#000005" stroke-width="1.5" stroke-linecap="square"/>
<path d="M485.444 554.232V561.732" stroke="#000005" stroke-width="1.5" stroke-linecap="square"/>
<path d="M477.63 561.732V554.232H482.694M477.63 557.982H481.944" stroke="#000005" stroke-width="1.5" stroke-linecap="square"/>
<path d="M468.174 557.982H473.62" stroke="#000005" stroke-width="1.5" stroke-linecap="square"/>
<path d="M553.174 429.188H280.674C277.914 429.188 275.674 426.948 275.674 424.188V409.232C275.674 406.472 277.914 404.232 280.674 404.232H553.174C555.934 404.232 558.174 406.472 558.174 409.232V424.188C558.174 426.95 555.934 429.188 553.174 429.188Z" fill="#A2A4A6"/>
<path d="M748.174 441.732V590.902" stroke="#231E1E" stroke-width="2" stroke-linecap="square"/>
<path d="M748.174 441.732V487.54" stroke="#8A653C" stroke-width="2" stroke-linecap="square"/>
<path d="M555.674 441.688V590.858" stroke="#0E1C26" stroke-width="2" stroke-linecap="square"/>
<path d="M555.674 441.688V487.496" stroke="#3C6087" stroke-width="2" stroke-linecap="square"/>
<path d="M507.547 546.626H438.797C436.035 546.626 433.797 544.386 433.797 541.626V534.126C433.797 531.366 436.035 529.126 438.797 529.126H507.547C510.307 529.126 512.547 531.366 512.547 534.126V541.626C512.547 544.386 510.307 546.626 507.547 546.626Z" fill="#5B6670"/>
<path d="M538.174 546.626H520.674C517.914 546.626 515.674 544.386 515.674 541.626V534.126C515.674 531.366 517.914 529.126 520.674 529.126H538.174C540.934 529.126 543.174 531.366 543.174 534.126V541.626C543.174 544.386 540.934 546.626 538.174 546.626Z" fill="#747F8A"/>
<path d="M449.17 514.188V514.376L451.796 518.313M451.796 518.313L454.421 514.376V514.188M451.796 518.313V521.688" stroke="#545E69" stroke-width="1.5" stroke-linecap="square"/>
<path d="M455.42 451.532V456.688C455.42 457.982 454.37 459.032 453.076 459.032H452.138C450.844 459.032 449.794 457.982 449.794 456.688V451.532" stroke="#545E69" stroke-width="1.5" stroke-linecap="square"/>
<path d="M441.296 514.188H446.921M444.108 514.188V521.688" stroke="#545E69" stroke-width="1.5" stroke-linecap="square"/>
<path d="M458.233 459.03V451.532H461.983C463.017 451.532 463.858 452.372 463.858 453.407C463.858 454.442 463.02 455.282 461.984 455.282H458.234" stroke="#545E69" stroke-width="1.5" stroke-linecap="square"/>
<path d="M460.858 455.47L463.67 458.845V459.032" stroke="#545E69" stroke-width="1.5" stroke-linecap="square"/>
<path d="M456.296 521.688V514.188H460.046C461.08 514.188 461.921 515.028 461.921 516.064C461.921 517.099 461.084 517.939 460.048 517.939H456.298" stroke="#545E69" stroke-width="1.5" stroke-linecap="square"/>
<path d="M468.858 521.688H463.796V514.188H468.858M463.796 517.938H468.108" stroke="#545E69" stroke-width="1.5" stroke-linecap="square"/>
<path d="M444.64 451.532C445.933 451.532 446.983 452.582 446.983 453.876V456.688C446.983 457.982 445.933 459.032 444.639 459.032H441.357V451.532H444.637H444.64Z" stroke="#545E69" stroke-width="1.5" stroke-linecap="square"/>
<path d="M453.796 538.088H458.796" stroke="#000005" stroke-width="1.5" stroke-linecap="square"/>
<path d="M462.86 534.126H468.484M465.672 534.126V541.626" stroke="#000005" stroke-width="1.5" stroke-linecap="square"/>
<path d="M471.296 541.625V534.125H475.046C476.08 534.125 476.921 534.965 476.921 536.001C476.921 537.037 476.084 537.877 475.048 537.877H471.298" stroke="#000005" stroke-width="1.5" stroke-linecap="square"/>
<path d="M473.92 538.064L476.733 541.438V541.626" stroke="#000005" stroke-width="1.5" stroke-linecap="square"/>
<path d="M496.296 534.126V538.251M501.653 534.126V534.313L496.296 538.438V541.626M497.635 537.5L501.92 541.438V541.625" stroke="#000005" stroke-width="1.5" stroke-linecap="square"/>
<path d="M493.696 536C493.609 535.572 493.404 535.185 493.118 534.876C492.69 534.416 492.078 534.126 491.4 534.126H490.463C489.169 534.126 488.119 535.176 488.119 536.47V539.282C488.119 540.576 489.167 541.626 490.462 541.626H491.399C492.533 541.626 493.479 540.821 493.696 539.751" stroke="#000005" stroke-width="1.5" stroke-linecap="square"/>
<path d="M479.447 541.626V541.438L482.634 534.126H483.009L486.195 541.438V541.626M480.57 539H485.07" stroke="#000005" stroke-width="1.5" stroke-linecap="square"/>
<path d="M449.36 539.188H443.174V538.813L448.049 534.126H448.423V541.626" stroke="#000005" stroke-width="1.5" stroke-linecap="square"/>
<path d="M423.703 416.732H433.703" stroke="#000005" stroke-width="1.5" stroke-linecap="square"/>
<path d="M436.952 409.233H448.202M442.577 409.233V424.233" stroke="#000005" stroke-width="1.5" stroke-linecap="square"/>
<path d="M452.224 424.23V409.232H459.724C461.794 409.232 463.474 410.912 463.474 412.982C463.474 415.052 461.798 416.732 459.727 416.732H452.225" stroke="#000005" stroke-width="1.5" stroke-linecap="square"/>
<path d="M457.474 417.11L463.099 423.857V424.232" stroke="#000005" stroke-width="1.5" stroke-linecap="square"/>
<path d="M499.424 409.232V417.482M510.14 409.232L510.138 409.607L499.424 417.857V424.232M502.103 415.982L510.673 423.857V424.231" stroke="#000005" stroke-width="1.5" stroke-linecap="square"/>
<path d="M495.225 412.982C495.051 412.122 494.642 411.35 494.068 410.732C493.212 409.81 491.988 409.232 490.631 409.232H488.757C486.167 409.232 484.07 411.332 484.07 413.919V419.543C484.07 422.133 486.168 424.23 488.756 424.23H490.631C492.901 424.23 494.791 422.62 495.226 420.48" stroke="#000005" stroke-width="1.5" stroke-linecap="square"/>
<path d="M467.226 424.232V423.857L473.601 409.233H474.351L480.727 423.857V424.232M469.476 418.982H478.476" stroke="#000005" stroke-width="1.5" stroke-linecap="square"/>
<path d="M418.156 419.357H405.782V418.607L415.532 409.232H416.282V424.232" stroke="#000005" stroke-width="1.5" stroke-linecap="square"/>
<path d="M526.924 541.688C528.995 541.688 530.674 540.009 530.674 537.938C530.674 535.867 528.995 534.188 526.924 534.188C524.853 534.188 523.174 535.867 523.174 537.938C523.174 540.009 524.853 541.688 526.924 541.688Z" stroke="#000005" stroke-width="1.5" stroke-linecap="square"/>
<path d="M531.924 541.688C533.995 541.688 535.674 540.009 535.674 537.938C535.674 535.867 533.995 534.188 531.924 534.188C529.853 534.188 528.174 535.867 528.174 537.938C528.174 540.009 529.853 541.688 531.924 541.688Z" stroke="#000005" stroke-width="1.5" stroke-linecap="square"/>
<path d="M492.212 501.345H439.962C437.2 501.345 434.962 499.105 434.962 496.345V471.345C434.962 468.585 437.2 466.345 439.962 466.345H492.212C494.972 466.345 497.212 468.585 497.212 471.345V496.345C497.212 499.105 494.974 501.345 492.212 501.345Z" stroke="#2B4261" stroke-width="1.5" stroke-linecap="square"/>
<path d="M515.142 478.97V471.47H515.705L519.83 478.97H520.392V471.47" stroke="#2B4261" stroke-width="1.5" stroke-linecap="square"/>
<path d="M504.83 478.97V471.47H505.35L507.7 475.97H507.96L510.308 471.47H510.83V478.97" stroke="#2B4261" stroke-width="1.5" stroke-linecap="square"/>
<path d="M513.267 471.47V478.97" stroke="#2B4261" stroke-width="1.5" stroke-linecap="square"/>
<path d="M363.425 409.233H374.675M369.05 409.233V424.233" stroke="#000005" stroke-width="1.5" stroke-linecap="square"/>
<path d="M348.425 424.23V409.232H355.925C357.995 409.232 359.675 410.912 359.675 412.982C359.675 415.052 357.999 416.732 355.928 416.732H348.426" stroke="#000005" stroke-width="1.5" stroke-linecap="square"/>
<path d="M353.675 417.11L359.3 423.857V424.232" stroke="#000005" stroke-width="1.5" stroke-linecap="square"/>
<path d="M318.426 424.23V409.233H325.926C327.996 409.233 329.676 410.913 329.676 412.983C329.676 415.053 328 416.733 325.929 416.733H318.426" stroke="#000005" stroke-width="1.5" stroke-linecap="square"/>
<path d="M339.988 409.232C342.578 409.232 344.675 411.332 344.675 413.919V419.543C344.675 422.133 342.575 424.23 339.988 424.23H338.113C335.523 424.23 333.426 422.132 333.426 419.544V413.919C333.426 411.329 335.526 409.231 338.113 409.231H339.988V409.232Z" stroke="#000005" stroke-width="1.5" stroke-linecap="square"/>
<path d="M374.674 424.232V423.857L381.049 409.233H381.799L388.173 423.857V424.232M376.924 418.982H385.924" stroke="#000005" stroke-width="1.5" stroke-linecap="square"/>
<path d="M300.243 535.884H307.14V542.781H300.243V535.884Z" stroke="#1E252B" stroke-width="1.5" stroke-linecap="square"/>
<path d="M303.691 542.781C305.595 542.781 307.139 541.237 307.139 539.333C307.139 537.429 305.595 535.885 303.691 535.885C301.787 535.885 300.243 537.429 300.243 539.333C300.243 541.237 301.787 542.781 303.691 542.781Z" stroke="#1E252B" stroke-width="1.5" stroke-linecap="square"/>
<path d="M300.243 539.333H307.139" stroke="#E52817" stroke-width="1.5" stroke-linecap="square"/>
<path d="M360.933 504.16H406.45V530.367H360.933V504.16Z" fill="#5B6670"/>
<path d="M364.51 509.5H403.093C403.78 509.5 404.337 510.057 404.337 510.744V520.524C404.337 521.212 403.78 521.769 403.093 521.769H364.51C363.822 521.769 363.265 521.211 363.265 520.524V510.744C363.265 510.056 363.821 509.499 364.509 509.499L364.51 509.5Z" fill="#000005" stroke="#000005" stroke-width="2" stroke-miterlimit="10"/>
<path d="M300.243 471.057H314.036V477.954H300.243V471.057Z" fill="#CDD0C2" stroke="#CDD0C2" stroke-width="1.5" stroke-linecap="square"/>
<path d="M307.14 476.804L301.392 473.356" stroke="#545E69" stroke-width="1.5" stroke-linecap="square"/>
<path d="M307.139 477.379C307.457 477.379 307.714 477.122 307.714 476.804C307.714 476.486 307.457 476.229 307.139 476.229C306.821 476.229 306.564 476.486 306.564 476.804C306.564 477.122 306.821 477.379 307.139 477.379Z" stroke="#545E69" stroke-width="1.5" stroke-linecap="square"/>
<path d="M310.588 472.98C311.45 473.39 312.228 473.948 312.888 474.622" stroke="#CC1F00" stroke-width="1.5" stroke-linecap="square"/>
<path d="M301.392 474.62C302.852 473.13 304.888 472.206 307.139 472.206C308.372 472.206 309.541 472.484 310.586 472.98" stroke="#A2A4A6" stroke-width="1.5" stroke-linecap="square"/>
<path d="M318.634 471.057H332.427V477.954H318.634V471.057Z" fill="#CDD0C2" stroke="#CDD0C2" stroke-width="1.5" stroke-linecap="square"/>
<path d="M325.53 476.804L319.783 473.356" stroke="#545E69" stroke-width="1.5" stroke-linecap="square"/>
<path d="M325.53 477.379C325.848 477.379 326.105 477.122 326.105 476.804C326.105 476.486 325.848 476.229 325.53 476.229C325.212 476.229 324.955 476.486 324.955 476.804C324.955 477.122 325.212 477.379 325.53 477.379Z" stroke="#545E69" stroke-width="1.5" stroke-linecap="square"/>
<path d="M328.98 472.98C329.84 473.39 330.618 473.948 331.278 474.622" stroke="#CC1F00" stroke-width="1.5" stroke-linecap="square"/>
<path d="M319.783 474.62C321.243 473.13 323.279 472.206 325.53 472.206C326.764 472.206 327.933 472.484 328.978 472.98" stroke="#A2A4A6" stroke-width="1.5" stroke-linecap="square"/>
<path d="M337.025 471.057H350.818V477.954H337.025V471.057Z" fill="#CDD0C2" stroke="#CDD0C2" stroke-width="1.5" stroke-linecap="square"/>
<path d="M343.92 476.804L338.174 473.356" stroke="#545E69" stroke-width="1.5" stroke-linecap="square"/>
<path d="M343.921 477.379C344.238 477.379 344.496 477.122 344.496 476.804C344.496 476.486 344.238 476.229 343.921 476.229C343.603 476.229 343.346 476.486 343.346 476.804C343.346 477.122 343.603 477.379 343.921 477.379Z" stroke="#545E69" stroke-width="1.5" stroke-linecap="square"/>
<path d="M347.37 472.98C348.23 473.39 349.008 473.948 349.668 474.622" stroke="#CC1F00" stroke-width="1.5" stroke-linecap="square"/>
<path d="M338.174 474.62C339.634 473.13 341.67 472.206 343.921 472.206C345.156 472.206 346.325 472.484 347.371 472.98" stroke="#A2A4A6" stroke-width="1.5" stroke-linecap="square"/>
<path d="M355.415 471.057H369.208V477.954H355.415V471.057Z" fill="#CDD0C2" stroke="#CDD0C2" stroke-width="1.5" stroke-linecap="square"/>
<path d="M362.312 476.804L356.565 473.356" stroke="#545E69" stroke-width="1.5" stroke-linecap="square"/>
<path d="M362.312 477.379C362.63 477.379 362.887 477.122 362.887 476.804C362.887 476.486 362.63 476.229 362.312 476.229C361.995 476.229 361.737 476.486 361.737 476.804C361.737 477.122 361.995 477.379 362.312 477.379Z" stroke="#545E69" stroke-width="1.5" stroke-linecap="square"/>
<path d="M365.76 472.98C366.622 473.39 367.4 473.948 368.06 474.622" stroke="#CC1F00" stroke-width="1.5" stroke-linecap="square"/>
<path d="M356.565 474.62C358.025 473.13 360.061 472.206 362.312 472.206C363.546 472.206 364.715 472.484 365.76 472.98" stroke="#A2A4A6" stroke-width="1.5" stroke-linecap="square"/>
<path d="M303.912 545.54V549.678M313.173 546.78C313.173 546.08 313.743 545.54 314.443 545.54H315.065C315.759 545.54 316.325 546.088 316.325 546.78C316.325 547.344 315.892 547.61 315.441 547.953L313.204 549.47V549.677H316.327" stroke="#CDD0C2" stroke-width="1.5" stroke-linecap="square"/>
<path d="M324.413 548.643C324.413 549.213 324.876 549.677 325.447 549.677H326.481C327.053 549.677 327.516 549.214 327.516 548.643C327.516 548.073 327.053 547.609 326.482 547.609M326.482 547.609H325.449M326.482 547.609C327.052 547.609 327.516 547.146 327.516 546.575C327.516 546.005 327.053 545.541 326.482 545.541H325.448C324.878 545.541 324.414 546.005 324.414 546.576" stroke="#CDD0C2" stroke-width="1.5" stroke-linecap="square"/>
<path d="M338.142 548.436H335.039V548.229L337.519 545.539H337.727V549.677" stroke="#CDD0C2" stroke-width="1.5" stroke-linecap="square"/>
<path d="M377.484 478.643C379.769 478.643 381.622 476.79 381.622 474.505C381.622 472.22 379.769 470.367 377.484 470.367C375.199 470.367 373.346 472.22 373.346 474.505C373.346 476.79 375.199 478.643 377.484 478.643Z" stroke="#1E252B" stroke-width="1.5" stroke-linecap="square"/>
<path d="M388.519 478.643C390.804 478.643 392.657 476.79 392.657 474.505C392.657 472.22 390.804 470.367 388.519 470.367C386.234 470.367 384.381 472.22 384.381 474.505C384.381 476.79 386.234 478.643 388.519 478.643Z" stroke="#1E252B" stroke-width="1.5" stroke-linecap="square"/>
<path d="M399.553 478.643C401.838 478.643 403.691 476.79 403.691 474.505C403.691 472.22 401.838 470.367 399.553 470.367C397.268 470.367 395.415 472.22 395.415 474.505C395.415 476.79 397.268 478.643 399.553 478.643Z" stroke="#1E252B" stroke-width="1.5" stroke-linecap="square"/>
<path d="M303.691 488.988C305.595 488.988 307.139 487.444 307.139 485.54C307.139 483.636 305.595 482.092 303.691 482.092C301.787 482.092 300.243 483.636 300.243 485.54C300.243 487.444 301.787 488.988 303.691 488.988Z" stroke="#1E252B" stroke-width="1.5" stroke-linecap="square"/>
<path d="M314.726 488.988C316.63 488.988 318.174 487.444 318.174 485.54C318.174 483.636 316.63 482.092 314.726 482.092C312.822 482.092 311.278 483.636 311.278 485.54C311.278 487.444 312.822 488.988 314.726 488.988Z" stroke="#1E252B" stroke-width="1.5" stroke-linecap="square"/>
<path d="M325.76 488.988C327.664 488.988 329.208 487.444 329.208 485.54C329.208 483.636 327.664 482.092 325.76 482.092C323.856 482.092 322.312 483.636 322.312 485.54C322.312 487.444 323.856 488.988 325.76 488.988Z" stroke="#1E252B" stroke-width="1.5" stroke-linecap="square"/>
<path d="M336.795 488.988C338.699 488.988 340.243 487.444 340.243 485.54C340.243 483.636 338.699 482.092 336.795 482.092C334.891 482.092 333.347 483.636 333.347 485.54C333.347 487.444 334.891 488.988 336.795 488.988Z" stroke="#1E252B" stroke-width="1.5" stroke-linecap="square"/>
<path d="M300.933 484.85H302.313V486.23H300.933V484.85Z" fill="#E52817"/>
<path d="M303.691 498.643C305.595 498.643 307.139 497.099 307.139 495.195C307.139 493.291 305.595 491.747 303.691 491.747C301.787 491.747 300.243 493.291 300.243 495.195C300.243 497.099 301.787 498.643 303.691 498.643Z" stroke="#1E252B" stroke-width="1.5" stroke-linecap="square"/>
<path d="M302.23 492.75L303.204 493.726L302.229 494.702L301.253 493.726L302.23 492.75Z" fill="#8A653C"/>
<path d="M314.726 498.643C316.63 498.643 318.174 497.099 318.174 495.195C318.174 493.291 316.63 491.747 314.726 491.747C312.822 491.747 311.278 493.291 311.278 495.195C311.278 497.099 312.822 498.643 314.726 498.643Z" stroke="#1E252B" stroke-width="1.5" stroke-linecap="square"/>
<path d="M313.263 492.75L314.238 493.726L313.263 494.701L312.288 493.727L313.263 492.75Z" fill="#8A653C"/>
<path d="M325.76 498.643C327.664 498.643 329.208 497.099 329.208 495.195C329.208 493.291 327.664 491.747 325.76 491.747C323.856 491.747 322.312 493.291 322.312 495.195C322.312 497.099 323.856 498.643 325.76 498.643Z" stroke="#1E252B" stroke-width="1.5" stroke-linecap="square"/>
<path d="M324.298 492.75L325.273 493.726L324.298 494.701L323.323 493.727L324.298 492.75Z" fill="#8A653C"/>
<path d="M336.795 498.643C338.699 498.643 340.243 497.099 340.243 495.195C340.243 493.291 338.699 491.747 336.795 491.747C334.891 491.747 333.347 493.291 333.347 495.195C333.347 497.099 334.891 498.643 336.795 498.643Z" stroke="#1E252B" stroke-width="1.5" stroke-linecap="square"/>
<path d="M335.332 492.75L336.307 493.726L335.332 494.701L334.357 493.727L335.332 492.75Z" fill="#8A653C"/>
<path d="M303.691 508.298C305.595 508.298 307.139 506.754 307.139 504.85C307.139 502.946 305.595 501.402 303.691 501.402C301.787 501.402 300.243 502.946 300.243 504.85C300.243 506.754 301.787 508.298 303.691 508.298Z" stroke="#1E252B" stroke-width="1.5" stroke-linecap="square"/>
<path d="M302.23 502.406L303.204 503.381L302.229 504.357L301.253 503.382L302.23 502.406Z" fill="#8A653C"/>
<path d="M314.726 508.298C316.63 508.298 318.174 506.754 318.174 504.85C318.174 502.946 316.63 501.402 314.726 501.402C312.822 501.402 311.278 502.946 311.278 504.85C311.278 506.754 312.822 508.298 314.726 508.298Z" stroke="#1E252B" stroke-width="1.5" stroke-linecap="square"/>
<path d="M313.263 502.406L314.238 503.381L313.263 504.357L312.288 503.382L313.263 502.406Z" fill="#8A653C"/>
<path d="M325.76 508.298C327.664 508.298 329.208 506.754 329.208 504.85C329.208 502.946 327.664 501.402 325.76 501.402C323.856 501.402 322.312 502.946 322.312 504.85C322.312 506.754 323.856 508.298 325.76 508.298Z" stroke="#1E252B" stroke-width="1.5" stroke-linecap="square"/>
<path d="M324.298 502.406L325.273 503.381L324.298 504.357L323.323 503.382L324.298 502.406Z" fill="#8A653C"/>
<path d="M336.795 508.298C338.699 508.298 340.243 506.754 340.243 504.85C340.243 502.946 338.699 501.402 336.795 501.402C334.891 501.402 333.347 502.946 333.347 504.85C333.347 506.754 334.891 508.298 336.795 508.298Z" stroke="#1E252B" stroke-width="1.5" stroke-linecap="square"/>
<path d="M335.332 502.406L336.307 503.381L335.332 504.357L334.357 503.382L335.332 502.406Z" fill="#8A653C"/>
<path d="M303.691 517.953C305.595 517.953 307.139 516.409 307.139 514.505C307.139 512.601 305.595 511.057 303.691 511.057C301.787 511.057 300.243 512.601 300.243 514.505C300.243 516.409 301.787 517.953 303.691 517.953Z" stroke="#1E252B" stroke-width="1.5" stroke-linecap="square"/>
<path d="M302.228 512.062L303.204 513.037L302.228 514.012L301.253 513.037L302.228 512.062Z" fill="#3C6087"/>
<path d="M314.726 517.953C316.63 517.953 318.174 516.409 318.174 514.505C318.174 512.601 316.63 511.057 314.726 511.057C312.822 511.057 311.278 512.601 311.278 514.505C311.278 516.409 312.822 517.953 314.726 517.953Z" stroke="#1E252B" stroke-width="1.5" stroke-linecap="square"/>
<path d="M313.262 512.062L314.238 513.037L313.262 514.012L312.287 513.037L313.262 512.062Z" fill="#3C6087"/>
<path d="M325.76 517.953C327.664 517.953 329.208 516.409 329.208 514.505C329.208 512.601 327.664 511.057 325.76 511.057C323.856 511.057 322.312 512.601 322.312 514.505C322.312 516.409 323.856 517.953 325.76 517.953Z" stroke="#1E252B" stroke-width="1.5" stroke-linecap="square"/>
<path d="M324.297 512.062L325.272 513.037L324.297 514.012L323.322 513.037L324.297 512.062Z" fill="#3C6087"/>
<path d="M336.795 517.953C338.699 517.953 340.243 516.409 340.243 514.505C340.243 512.601 338.699 511.057 336.795 511.057C334.891 511.057 333.347 512.601 333.347 514.505C333.347 516.409 334.891 517.953 336.795 517.953Z" stroke="#1E252B" stroke-width="1.5" stroke-linecap="square"/>
<path d="M335.33 512.06L336.306 513.037L335.331 514.012L334.357 513.037L335.33 512.06Z" fill="#3C6087"/>
<path d="M311.967 484.85H313.347V486.23H311.967V484.85ZM323.002 484.85H324.382V486.23H323L323.002 484.85ZM334.036 484.85H335.416V486.23H334.036V484.85Z" fill="#E52817"/>
<path d="M365.76 488.988C367.664 488.988 369.208 487.444 369.208 485.54C369.208 483.636 367.664 482.092 365.76 482.092C363.856 482.092 362.312 483.636 362.312 485.54C362.312 487.444 363.856 488.988 365.76 488.988Z" stroke="#1E252B" stroke-width="1.5" stroke-linecap="square"/>
<path d="M376.795 488.988C378.699 488.988 380.243 487.444 380.243 485.54C380.243 483.636 378.699 482.092 376.795 482.092C374.891 482.092 373.347 483.636 373.347 485.54C373.347 487.444 374.891 488.988 376.795 488.988Z" stroke="#1E252B" stroke-width="1.5" stroke-linecap="square"/>
<path d="M387.829 488.988C389.733 488.988 391.277 487.444 391.277 485.54C391.277 483.636 389.733 482.092 387.829 482.092C385.925 482.092 384.381 483.636 384.381 485.54C384.381 487.444 385.925 488.988 387.829 488.988Z" stroke="#1E252B" stroke-width="1.5" stroke-linecap="square"/>
<path d="M398.864 488.988C400.768 488.988 402.312 487.444 402.312 485.54C402.312 483.636 400.768 482.092 398.864 482.092C396.96 482.092 395.416 483.636 395.416 485.54C395.416 487.444 396.96 488.988 398.864 488.988Z" stroke="#1E252B" stroke-width="1.5" stroke-linecap="square"/>
<path d="M363.002 484.85H364.382V486.23H363L363.002 484.85ZM374.036 484.85H375.416V486.23H374.036V484.85ZM385.07 484.85H386.45V486.23H385.07V484.85ZM396.105 484.85H397.485V486.23H396.105V484.85Z" fill="#413732"/>
<path d="M350.588 488.988C352.492 488.988 354.036 487.444 354.036 485.54C354.036 483.636 352.492 482.092 350.588 482.092C348.684 482.092 347.14 483.636 347.14 485.54C347.14 487.444 348.684 488.988 350.588 488.988Z" stroke="#1E252B" stroke-width="1.5" stroke-linecap="square"/>
<path d="M351.277 482.78V484.16H349.897V482.78H351.277Z" fill="#E52817"/>
<path d="M311.277 520.712H318.174M311.277 520.712V542.782H318.174V520.712M311.277 520.712V527.609H318.174V520.712M300.243 520.712H307.14V542.782H300.243V520.712Z" stroke="#1E252B" stroke-width="1.5" stroke-linecap="square"/>
<path d="M314.726 527.608C316.63 527.608 318.174 526.064 318.174 524.16C318.174 522.256 316.63 520.712 314.726 520.712C312.822 520.712 311.278 522.256 311.278 524.16C311.278 526.064 312.822 527.608 314.726 527.608Z" stroke="#1E252B" stroke-width="1.5" stroke-linecap="square"/>
<path d="M311.277 524.16H318.174" stroke="#E52817" stroke-width="1.5" stroke-linecap="square"/>
<path d="M322.312 520.712H329.209V542.782H322.311L322.312 520.712ZM322.312 526.23H329.209V533.126H322.311L322.312 526.23Z" stroke="#1E252B" stroke-width="1.5" stroke-linecap="square"/>
<path d="M325.76 533.126C327.664 533.126 329.208 531.582 329.208 529.678C329.208 527.774 327.664 526.23 325.76 526.23C323.856 526.23 322.312 527.774 322.312 529.678C322.312 531.582 323.856 533.126 325.76 533.126Z" stroke="#1E252B" stroke-width="1.5" stroke-linecap="square"/>
<path d="M322.312 529.678H329.208" stroke="#E52817" stroke-width="1.5" stroke-linecap="square"/>
<path d="M333.346 520.712H340.243V542.782H333.346V520.712ZM333.346 524.85H340.243V531.747H333.346V524.85Z" stroke="#1E252B" stroke-width="1.5" stroke-linecap="square"/>
<path d="M336.795 531.746C338.699 531.746 340.243 530.202 340.243 528.298C340.243 526.394 338.699 524.85 336.795 524.85C334.891 524.85 333.347 526.394 333.347 528.298C333.347 530.202 334.891 531.746 336.795 531.746Z" stroke="#1E252B" stroke-width="1.5" stroke-linecap="square"/>
<path d="M333.346 528.298H340.243" stroke="#E52817" stroke-width="1.5" stroke-linecap="square"/>
<path d="M347.14 520.712H354.036M347.14 520.712L347.139 542.782H354.036V520.712M347.14 520.712L347.139 527.609H354.036V520.712" stroke="#1E252B" stroke-width="1.5" stroke-linecap="square"/>
<path d="M350.588 527.608C352.492 527.608 354.036 526.064 354.036 524.16C354.036 522.256 352.492 520.712 350.588 520.712C348.684 520.712 347.14 522.256 347.14 524.16C347.14 526.064 348.684 527.608 350.588 527.608Z" stroke="#1E252B" stroke-width="1.5" stroke-linecap="square"/>
<path d="M347.14 524.16H354.036" stroke="#E52817" stroke-width="1.5" stroke-linecap="square"/>
<path d="M345.76 501.402H347.14V513.816H345.76V501.402ZM355.415 501.402H356.795V513.816H355.415V501.402Z" stroke="#1E252B" stroke-width="1.5" stroke-linecap="square"/>
<path d="M348.52 501.402H354.036V504.162H348.519L348.52 501.402ZM348.52 508.298H354.036V511.058H348.519L348.52 508.298Z" fill="#CDD0C2"/>
<path d="M365.617 515.635L364.849 521.77ZM398.94 513.27L402.15 521.77Z" fill="#413732"/>
<path d="M365.617 515.635L364.849 521.77M398.94 513.27L402.15 521.77" stroke="#413732" stroke-width="2" stroke-miterlimit="10"/>
<path d="M386.386 515.635C386.386 518.472 388.204 520.883 390.739 521.77H395.031C397.565 520.883 399.384 518.472 399.384 515.635C399.384 512.798 397.566 510.387 395.031 509.5H390.738C388.203 510.387 386.384 512.798 386.384 515.635H386.386Z" fill="#413732" stroke="#413732" stroke-width="2" stroke-miterlimit="10"/>
<path d="M392.886 521.34C396.037 521.34 398.591 518.786 398.591 515.635C398.591 512.484 396.037 509.93 392.886 509.93C389.735 509.93 387.181 512.484 387.181 515.635C387.181 518.786 389.735 521.34 392.886 521.34Z" fill="#040404"/>
<path d="M383.73 515.635C383.73 513.268 382.82 511.115 381.334 509.5H368.014C366.526 511.114 365.617 513.268 365.617 515.635C365.617 518.002 366.527 520.155 368.013 521.77H381.333C382.821 520.156 383.73 518.002 383.73 515.635Z" fill="#413732" stroke="#413732" stroke-width="2" stroke-miterlimit="10"/>
<path d="M374.673 521.34C377.824 521.34 380.378 518.786 380.378 515.635C380.378 512.484 377.824 509.93 374.673 509.93C371.522 509.93 368.968 512.484 368.968 515.635C368.968 518.786 371.522 521.34 374.673 521.34Z" fill="#040404"/>
<path d="M397.585 517.346C397.687 517.066 397.761 516.781 397.811 516.496L395.481 515.646C395.485 514.582 394.831 513.581 393.774 513.196C392.716 512.811 391.572 513.159 390.892 513.978L388.562 513.128C388.417 513.378 388.29 513.644 388.188 513.925C388.086 514.205 388.012 514.49 387.962 514.775L390.294 515.625C390.289 516.689 390.942 517.69 392 518.075C393.058 518.46 394.202 518.112 394.883 517.295L397.216 518.143C397.36 517.893 397.486 517.627 397.588 517.346H397.585ZM379.373 517.346C379.475 517.066 379.549 516.781 379.599 516.496L377.266 515.646C377.271 514.582 376.618 513.581 375.56 513.196C374.503 512.811 373.36 513.159 372.678 513.978L370.346 513.128C370.202 513.378 370.076 513.644 369.973 513.925C369.871 514.205 369.797 514.49 369.747 514.775L372.079 515.625C372.073 516.689 372.726 517.69 373.784 518.075C374.842 518.46 375.986 518.112 376.667 517.295L378.999 518.143C379.144 517.893 379.27 517.627 379.373 517.346Z" fill="#A2A4A6"/>
<path d="M392.886 517.825C394.096 517.825 395.076 516.845 395.076 515.635C395.076 514.426 394.096 513.445 392.886 513.445C391.677 513.445 390.696 514.426 390.696 515.635C390.696 516.845 391.677 517.825 392.886 517.825Z" fill="#040404"/>
<path d="M374.673 517.825C375.883 517.825 376.863 516.845 376.863 515.635C376.863 514.426 375.883 513.445 374.673 513.445C373.464 513.445 372.483 514.426 372.483 515.635C372.483 516.845 373.464 517.825 374.673 517.825Z" fill="#040404"/>
<path d="M373.75 516.323L373.348 517.019L374.138 517.474L374.558 516.744C374.598 516.747 374.634 516.749 374.673 516.749C374.711 516.749 374.749 516.747 374.787 516.743L375.209 517.473L375.997 517.018L375.595 516.321C375.655 516.251 375.708 516.171 375.751 516.089H376.533V515.179H375.833C375.796 515.053 375.737 514.936 375.663 514.831L375.997 514.251L375.207 513.795L374.894 514.34C374.822 514.328 374.748 514.32 374.674 514.32C374.597 514.32 374.524 514.328 374.452 514.34L374.138 513.796L373.348 514.252L373.683 514.832C373.609 514.937 373.549 515.054 373.511 515.18H372.811V516.09H373.594C373.634 516.174 373.688 516.252 373.748 516.323H373.75ZM391.962 516.323L391.56 517.019L392.35 517.474L392.77 516.744C392.81 516.747 392.846 516.749 392.885 516.749C392.923 516.749 392.961 516.747 392.999 516.743L393.419 517.473L394.209 517.018L393.807 516.321C393.867 516.251 393.92 516.171 393.963 516.089H394.745V515.179H394.045C394.008 515.053 393.949 514.936 393.875 514.831L394.209 514.251L393.419 513.795L393.106 514.34C393.034 514.328 392.96 514.32 392.886 514.32C392.809 514.32 392.736 514.328 392.664 514.34L392.35 513.796L391.562 514.252L391.897 514.832C391.823 514.937 391.763 515.054 391.725 515.18H391.025V516.09H391.808C391.85 516.174 391.902 516.252 391.962 516.323Z" fill="#545E69"/>
<path d="M360.933 497.264V498.644M365.07 497.264V498.644M369.208 497.264V498.644M373.346 497.264V498.644M377.484 497.264V498.644M381.622 497.264V498.644M385.76 497.264V498.644M358.174 520.712H356.794M358.174 524.85H356.794M358.174 528.988H356.794M358.174 533.126H356.794M358.174 537.264H356.794M358.174 541.402H356.794M344.38 520.712H343.002M344.38 524.85H343.002M344.38 528.988H343.002M344.38 533.126H343.002M344.38 537.264H343.002M344.38 541.402H343.002" stroke="#A2A4A6" stroke-width="1.5" stroke-linecap="square"/>
<path d="M374.726 500.022H380.243V502.782H374.726V500.022Z" fill="#1E252B" stroke="#1E252B" stroke-width="1.5" stroke-linecap="square"/>
<path d="M377.484 500.022V502.782" stroke="#A2A4A6" stroke-width="1.5" stroke-linecap="square"/>
<path d="M360.933 530.367H406.45M360.933 533.605H406.45" stroke="#5B6670" stroke-width="1.5"/>
<path d="M370.588 537.264V540.024M370.588 537.264H378.863M370.588 537.264H362.313V549.678H367.83V541.402L369.208 540.024H370.588M370.588 540.024H371.968L373.346 541.402V549.678H378.863V537.264M378.863 537.264H387.139M378.863 537.264H378.864V540.024H380.244L381.622 541.402V549.678H387.139V537.264M387.139 537.264H395.414V549.678H389.898V541.402L388.518 540.024H387.14V537.264H387.139ZM395.415 537.264V540.024H396.795L398.173 541.402V549.678H403.69V537.264H395.415Z" stroke="#1E252B" stroke-width="1.5" stroke-linecap="square"/>
<path d="M290.588 540.286H291.968V545.803H290.588V540.286ZM409.208 540.286H410.588V545.803H409.208V540.286ZM291.967 541.666H294.727V544.426H291.967V541.666ZM406.45 541.666H409.21V544.426H406.45V541.666ZM404.137 552.436H297.04C295.76 552.436 294.726 551.4 294.726 550.123V469.233C294.726 467.953 295.762 466.919 297.039 466.919H404.136C405.414 466.919 406.449 467.954 406.449 469.231V550.121C406.449 551.401 405.413 552.435 404.136 552.435L404.137 552.436Z" stroke="#545E69" stroke-width="1.5" stroke-linecap="square"/>
<path d="M377.484 470.367V478.643M388.52 470.367V478.643M399.553 470.367V478.643" stroke="#1E252B" stroke-width="1.5" stroke-linecap="square"/>
<path d="M621.492 409.232H632.742M627.117 409.232V424.232" stroke="#000005" stroke-width="1.5" stroke-linecap="square"/>
<path d="M649.57 424.23V409.232H657.07C659.14 409.232 660.82 410.912 660.82 412.982C660.82 415.052 659.144 416.732 657.072 416.732H649.57" stroke="#000005" stroke-width="1.5" stroke-linecap="square"/>
<path d="M674.564 424.232H664.44V409.232H674.564M664.44 416.73L673.064 416.732" stroke="#000005" stroke-width="1.5" stroke-linecap="square"/>
<path d="M632.814 424.232V423.857L639.189 409.232H639.939L646.313 423.857V424.232M635.064 418.982H644.064" stroke="#000005" stroke-width="1.5" stroke-linecap="square"/>
<path d="M688.174 412.982C688.174 410.912 686.494 409.232 684.422 409.232H680.672C678.602 409.232 676.922 410.912 676.922 412.982C676.922 413.357 677.005 413.785 677.195 414.207C677.57 415.042 678.357 415.62 679.24 415.86L685.704 417.617C686.718 417.893 687.606 418.587 687.984 419.567C688.108 419.887 688.172 420.201 688.172 420.482C688.172 422.552 686.492 424.232 684.42 424.232H680.672C678.602 424.232 676.922 422.552 676.922 420.482" stroke="#000005" stroke-width="1.5" stroke-linecap="square"/>
<path d="M290.674 529.232C290.674 529.232 293.346 535.634 293.346 540.286V552.958C293.346 556.034 291.692 560.324 290.586 566.732C289.232 574.599 288.466 598.217 325.964 582.837C363.461 567.457 371.648 572.745 386.449 572.965C401.249 573.185 403.359 571.205 405.973 568.571C410.143 564.368 407.828 550.021 407.828 543.471C407.828 536.921 408.642 532.505 408.642 532.505" stroke="#413732" stroke-width="1.5" stroke-linecap="square"/>
<path d="M591.364 446.064V447.719H585.159V464.263H583.503V447.72H577.3V446.064H591.364ZM606.458 462.86V464.265H604.803V463.185L602.7 458.06H594.218L591.981 463.195V464.265H590.327V462.85L597.645 446.063H599.569L606.459 462.861L606.458 462.86ZM602.021 456.404L598.589 448.034L594.941 456.404H602.021ZM623.11 451.028C623.11 453.766 620.884 455.993 618.148 455.993H610.7V464.263H609.045V446.063H618.145C620.881 446.063 623.11 448.291 623.11 451.028ZM621.453 451.028C621.453 449.203 619.969 447.718 618.143 447.718H610.7V454.338H618.147C619.971 454.338 621.453 452.853 621.453 451.028ZM627.365 447.72V454.335H636.878V455.992H627.365V462.61H638.533V464.265H625.71V446.065H638.533V447.719H627.365V447.72ZM650.306 464.265L650.982 459.169H648.85V457.634H651.216L651.71 453.864H649.474V452.33H651.944L652.621 447.365H654.131L653.481 452.331H656.184L656.86 447.366H658.393L657.743 452.332H659.876V453.867H657.51L657.042 457.637H659.278V459.171H656.808L656.131 464.266H654.571L655.248 459.17H652.544L651.867 464.265H650.306ZM655.479 457.635L655.972 453.865H653.268L652.773 457.635H655.477H655.479ZM662.11 464.265V446.065H663.764V464.265H662.11Z" fill="#A97C50"/>
<path d="M591.363 477.263V483.467C591.363 486.775 588.673 489.467 585.365 489.467H577.3V471.265H585.365C588.672 471.265 591.363 473.955 591.363 477.263ZM589.708 477.263C589.708 474.868 587.758 472.92 585.365 472.92H578.955V487.81H585.365C587.759 487.81 589.708 485.86 589.708 483.467V477.263ZM595.62 472.92V479.535H605.133V481.192H595.62V487.81H606.788V489.465H593.965V471.265H606.788V472.919H595.62V472.92ZM624.273 471.264V489.464H622.618V473.262L617.616 482.847H616.038L611.036 473.262V489.464H609.383V471.264H611.863L616.827 480.781L621.794 471.265H624.274L624.273 471.264ZM640.944 477.263V483.467C640.944 486.775 638.254 489.467 634.946 489.467H632.878C629.571 489.467 626.88 486.775 626.88 483.467V477.263C626.88 473.955 629.57 471.263 632.878 471.263H634.946C638.253 471.263 640.943 473.955 640.944 477.263ZM639.288 477.263C639.288 474.868 637.338 472.92 634.944 472.92H632.877C630.482 472.92 628.534 474.87 628.534 477.263V483.467C628.534 485.862 630.482 487.81 632.877 487.81H634.944C637.339 487.81 639.288 485.86 639.288 483.467V477.263ZM591.363 502.462V508.666C591.363 511.974 588.673 514.666 585.365 514.666H577.3V496.464H585.365C588.672 496.464 591.363 499.154 591.363 502.462ZM589.708 502.462C589.708 500.067 587.758 498.119 585.365 498.119H578.955V513.009H585.365C587.759 513.009 589.708 511.059 589.708 508.665V502.461V502.462ZM595.62 498.12V504.735H605.133V506.392H595.62V513.01H606.788V514.665H593.965V496.465H606.788V498.119H595.62V498.12ZM624.273 496.464V514.664H622.618V498.46L617.616 508.046H616.038L611.036 498.461V514.665H609.383V496.465H611.863L616.827 505.982L621.794 496.466H624.274L624.273 496.464ZM640.944 502.462V508.666C640.944 511.974 638.254 514.666 634.946 514.666H632.878C629.571 514.666 626.88 511.974 626.88 508.666V502.462C626.88 499.154 629.57 496.462 632.878 496.462H634.946C638.253 496.464 640.943 499.155 640.944 502.462ZM639.288 502.462C639.288 500.067 637.338 498.119 634.944 498.119H632.877C630.482 498.119 628.534 500.067 628.534 502.461V508.665C628.534 511.06 630.482 513.009 632.877 513.009H634.944C637.339 513.009 639.288 511.059 639.288 508.665V502.461V502.462ZM652.724 514.665L653.4 509.568H651.268V508.034H653.634L654.128 504.264H651.892V502.73H654.362L655.039 497.764H656.546L655.896 502.73H658.6L659.277 497.764H660.811L660.163 502.73H662.295V504.264H659.929L659.461 508.034H661.697V509.568H659.227L658.55 514.665H656.988L657.665 509.568H654.961L654.285 514.665H652.724ZM657.897 508.035L658.391 504.265H655.688L655.194 508.035H657.898H657.897ZM679.538 514.665H664.646V512.551L674.733 506.241C677.213 504.807 677.883 503.955 677.883 502.255C677.883 499.975 675.993 498.12 673.668 498.12H670.438C668.051 498.12 666.182 499.936 666.182 502.254V503.082H664.527V502.254C664.527 499.007 667.124 496.464 670.437 496.464H673.667C676.903 496.464 679.537 499.062 679.537 502.254C679.537 504.876 678.147 506.174 675.585 507.658L667.035 513.008H679.537V514.665H679.538ZM591.365 527.455H589.71V526.627C589.71 524.803 588.224 523.317 586.4 523.317H582.262C580.438 523.317 578.952 524.803 578.952 526.627C578.952 526.953 579.034 527.313 579.182 527.64C579.468 528.28 580.112 528.79 580.9 529.004L588.03 530.942C589.46 531.332 590.607 532.322 591.1 533.592C591.273 534.035 591.364 534.487 591.364 534.9C591.364 537.638 589.134 539.865 586.396 539.865H582.262C579.525 539.865 577.298 537.638 577.298 534.9V534.073H578.953V534.9C578.953 536.725 580.438 538.21 582.263 538.21H586.396C588.223 538.21 589.708 536.725 589.708 534.9C589.708 534.69 589.655 534.445 589.558 534.19C589.254 533.407 588.52 532.79 587.594 532.54L580.467 530.602C579.187 530.255 578.167 529.422 577.672 528.322C577.428 527.777 577.298 527.192 577.298 526.629C577.298 523.891 579.525 521.664 582.262 521.664H586.399C589.136 521.664 591.364 523.891 591.364 526.628V527.453L591.365 527.455ZM608.03 539.86L606.375 539.866V538.988L597.577 530.904L595.62 532.412V539.865H593.965V521.665H595.62V530.322L605.783 522.489L605.785 521.661L607.44 521.666L607.436 523.312L598.908 529.879L608.028 538.259L608.03 539.86ZM612.286 523.32V529.935H621.798V531.592L612.286 531.59V538.21H623.454V539.864H610.63V521.664H623.454V523.318H612.286V523.32ZM640.113 521.664V523.319H633.908V539.864H632.253V523.32H626.048V521.664H640.113ZM655.2 533.926L656.82 534.254L656.657 535.064C656.093 537.846 653.621 539.864 650.78 539.864H648.712C645.405 539.864 642.714 537.174 642.714 533.866V527.662C642.714 524.355 645.404 521.664 648.712 521.664H650.78C652.443 521.664 654.047 522.364 655.177 523.584C655.929 524.394 656.44 525.39 656.657 526.464L656.821 527.276L655.201 527.603L655.036 526.793C654.879 526.016 654.509 525.296 653.966 524.71C653.146 523.827 651.986 523.32 650.78 523.32H648.71C646.316 523.32 644.368 525.27 644.368 527.664V533.867C644.368 536.262 646.316 538.211 648.711 538.211H650.781C652.838 538.211 654.628 536.751 655.036 534.738L655.201 533.928L655.2 533.926ZM672.256 521.664V539.864H670.6V531.594H661.087V539.864H659.432V521.664H661.087V529.936H670.601V521.664H672.257H672.256Z" fill="#8A653C"/>
<path d="M458.184 480.455V479.627C458.184 477.802 456.699 476.317 454.874 476.317H449.911C448.087 476.317 446.603 477.803 446.603 479.627V484.227C447.483 483.434 448.636 482.937 449.913 482.937H454.876C457.614 482.937 459.84 485.163 459.84 487.9C459.84 490.637 457.612 492.864 454.875 492.864H449.911C447.458 492.864 445.429 491.071 445.031 488.728H444.948V479.628C444.948 476.89 447.174 474.663 449.912 474.663H454.877C457.615 474.663 459.841 476.89 459.841 479.627V480.455H458.184ZM446.604 487.899C446.604 489.723 448.088 491.207 449.912 491.207H454.876C456.701 491.207 458.186 489.723 458.186 487.897C458.186 486.071 456.7 484.589 454.876 484.589H449.912C448.088 484.589 446.602 486.074 446.602 487.899H446.604Z" fill="#2B4261"/>
</g>
<defs>
<clipPath id="clip0_1991_313">
<rect width="1024" height="1024" fill="white"/>
</clipPath>
</defs>
</svg>
