<svg width="1024" height="1024" viewBox="0 0 1024 1024" fill="none" xmlns="http://www.w3.org/2000/svg">
<g clip-path="url(#clip0_1991_227)">
<rect width="1024" height="1024" fill="#C2C2C2"/>
<path d="M752.055 625.624H272.257C268.343 625.624 265.17 622.451 265.17 618.537V406.307C265.17 402.393 268.343 399.22 272.257 399.22H752.055C755.969 399.22 759.142 402.393 759.142 406.307V618.537C759.142 622.451 755.969 625.624 752.055 625.624Z" fill="#010101"/>
<path d="M744.373 526.836H279.373C276.613 526.836 274.373 524.596 274.373 521.836V446.836C274.373 444.076 276.613 441.836 279.373 441.836H744.373C747.133 441.836 749.373 444.076 749.373 446.836V521.836C749.373 524.598 747.135 526.836 744.373 526.836ZM744.373 616.836H279.373C276.613 616.836 274.373 614.596 274.373 611.836V536.836C274.373 534.076 276.613 531.836 279.373 531.836H744.373C747.133 531.836 749.373 534.076 749.373 536.836V611.836C749.373 614.598 747.135 616.836 744.373 616.836Z" fill="#CDD0C2"/>
<path d="M681.873 531.836H631.873L681.873 616.836V531.836ZM681.873 441.836H631.873L681.873 526.836V441.836Z" fill="#A2A4A6"/>
<path d="M276.873 408.227C276.873 406.987 277.853 406.48 278.899 407.105L293.815 415.475C294.863 416.09 294.863 417.107 293.815 417.725L278.898 426.573C277.85 427.193 276.871 426.683 276.871 425.449V408.226L276.873 408.227Z" fill="#3D6087"/>
<path d="M719.998 411.21V422.46M714.373 416.836H725.623" stroke="#E52817" stroke-width="1.5" stroke-linecap="square"/>
<path d="M371.248 409.337V419.649C371.248 422.237 369.148 424.336 366.56 424.336H364.685C362.095 424.336 359.997 422.236 359.997 419.648V409.335" stroke="#8A653C" stroke-width="1.5" stroke-linecap="square"/>
<path d="M344.998 409.337H356.248M350.623 409.337V424.337" stroke="#8A653C" stroke-width="1.5" stroke-linecap="square"/>
<path d="M376.873 424.335V409.335L377.998 409.337L386.248 424.337H387.373V409.337" stroke="#8A653C" stroke-width="1.5" stroke-linecap="square"/>
<path d="M565.498 424.336V409.336H575.623M565.498 416.835H574.123" stroke="#A2A4A6" stroke-width="1.5" stroke-linecap="square"/>
<path d="M619.673 424.336H609.548V409.336H619.673M609.548 416.835H618.173" stroke="#A2A4A6" stroke-width="1.5" stroke-linecap="square"/>
<path d="M402.373 424.336H392.248V409.336H402.373M392.248 416.835H400.873" stroke="#8A653C" stroke-width="1.5" stroke-linecap="square"/>
<path d="M600.436 409.336C603.026 409.336 605.124 411.436 605.124 414.024V419.649C605.124 422.237 603.024 424.336 600.436 424.336H593.874V409.336H600.436Z" stroke="#A2A4A6" stroke-width="1.5" stroke-linecap="square"/>
<path d="M576.198 424.336V423.961L582.573 409.337H583.323L589.698 423.962V424.338M578.448 419.086H587.448" stroke="#A2A4A6" stroke-width="1.5" stroke-linecap="square"/>
<path d="M468.623 420.586C468.623 418.516 470.303 416.836 472.373 416.836H476.873C478.943 416.836 480.623 418.516 480.623 420.586C480.623 422.656 478.943 424.336 476.873 424.336H472.373C470.303 424.336 468.623 422.656 468.623 420.586ZM468.623 420.586V413.086C468.623 411.016 470.303 409.336 472.373 409.336H476.873C478.943 409.336 480.623 411.016 480.623 413.086" stroke="#8A653C" stroke-width="1.5" stroke-linecap="square"/>
<path d="M453.123 424.336H461.373C463.443 424.336 465.123 422.656 465.123 420.586C465.123 418.516 463.443 416.836 461.373 416.836H456.873C454.803 416.836 453.123 418.516 453.123 420.586V409.336H464.373" stroke="#8A653C" stroke-width="1.5" stroke-linecap="square"/>
<path d="M732.203 424.336H740.453C742.523 424.336 744.203 422.656 744.203 420.586C744.203 418.516 742.523 416.836 740.453 416.836H735.953C733.883 416.836 732.203 418.516 732.203 420.586V409.336H743.453" stroke="#E52817" stroke-width="1.5" stroke-linecap="square"/>
<path d="M442.998 419.46H430.623V418.71L440.373 409.336H441.123V424.336" stroke="#8A653C" stroke-width="1.5" stroke-linecap="square"/>
<path d="M415.623 420.586C415.623 422.656 417.303 424.336 419.373 424.336H423.873C425.943 424.336 427.623 422.656 427.623 420.586C427.623 418.516 425.943 416.836 423.873 416.836M423.873 416.836H419.373M423.873 416.836C425.943 416.836 427.623 415.156 427.623 413.086C427.623 411.016 425.943 409.336 423.873 409.336H419.373C417.303 409.336 415.623 411.016 415.623 413.086" stroke="#8A653C" stroke-width="1.5" stroke-linecap="square"/>
<path d="M634.873 420.586C634.873 422.656 636.553 424.336 638.623 424.336H643.123C645.193 424.336 646.873 422.656 646.873 420.586C646.873 418.516 645.193 416.836 643.123 416.836M643.123 416.836H638.623M643.123 416.836C645.193 416.836 646.873 415.156 646.873 413.086C646.873 411.016 645.193 409.336 643.123 409.336H638.623C636.553 409.336 634.873 411.016 634.873 413.086" stroke="#A2A4A6" stroke-width="1.5" stroke-linecap="square"/>
<path d="M344.373 532.423H449.373V617.423H344.373V532.423ZM344.373 442.423H449.373V527.423H344.373V442.423Z" fill="#A2A4A6"/>
<path d="M489.61 496.55C489.204 495.602 488.82 494.645 488.383 493.707C487.346 491.484 486.533 489.152 485.17 487.081C483.376 484.356 480.57 484.035 477.94 486.227C476.245 487.64 474.99 489.444 473.593 491.105C471.937 493.072 471.148 493.061 469.673 490.991C468.813 489.783 468.041 488.513 467.029 487.403C464.749 484.905 460.687 484.939 458.574 487.523C457.304 489.077 456.461 489.13 455.016 487.643C452.778 485.34 449.484 485.316 447.726 487.917C445.814 490.747 444.223 493.892 443.41 497.069C441.7 503.753 440.626 510.553 439.208 517.294C438.844 519.024 438.174 520.708 437.645 522.414L436.675 522.424C436.2 521.666 435.483 520.951 435.289 520.144C434.239 515.792 433.382 511.407 432.341 507.054C431.434 503.256 430.709 499.389 429.257 495.737C428.305 493.342 426.571 490.981 424.519 489.141C422.309 487.159 419.035 487.451 416.027 488.035C410.485 489.113 408.021 492.998 405.207 496.579C404.467 497.522 403.52 498.349 402.669 499.231C401.967 498.249 401.155 497.311 400.584 496.277C399.352 494.047 398.438 491.675 397.046 489.524C393.566 484.144 385.609 484.191 381.912 489.529C381.279 490.443 380.672 491.369 380.014 492.269C378.794 493.939 377.679 493.964 376.17 492.399C374.804 490.979 373.404 489.584 372.043 488.161C370.353 486.395 368.176 485.379 365.51 485.615C362.152 485.913 358.836 486.541 355.48 486.867C353.798 487.031 351.985 487.104 350.378 486.745C348.25 486.27 346.265 485.332 344.223 484.595C346.809 482.298 352.813 481.342 356.257 482.065C359.67 482.782 363.269 483.03 366.799 483.122C369.624 483.197 371.439 481.428 373.002 479.616C374.082 478.363 375.002 476.998 376.185 475.824C377.8 474.224 378.959 474.344 380.305 476.098C381.257 477.338 382.069 478.663 383.083 479.865C387.219 484.775 394.623 484.542 397.99 479.212C399.78 476.382 400.774 473.195 402.234 470.207C402.577 469.507 403.357 468.959 403.936 468.341C404.476 468.927 405.14 469.459 405.533 470.109C406.895 472.366 407.941 474.782 409.509 476.925C413.853 482.863 423.511 482.905 428.052 477.067C430.994 473.285 431.629 468.907 432.266 464.552C432.952 459.862 433.582 455.162 434.24 450.469C434.27 450.259 434.28 450.024 434.397 449.849C434.957 449.032 435.55 448.231 436.132 447.424C436.717 448.189 437.632 448.896 437.834 449.728C439.056 454.776 439.964 459.881 441.274 464.911C442.368 469.103 443.751 473.251 445.26 477.351C445.787 478.784 446.883 480.154 448.055 481.307C450.081 483.3 453.021 483.243 454.935 481.213C456.278 479.789 457.199 479.611 458.552 481.2C461.004 484.078 464.976 484.036 467.452 481.14C468.374 480.064 469.029 478.824 469.814 477.662C471.092 475.772 471.864 475.756 473.368 477.502C474.838 479.206 476.185 481.026 477.921 482.516C480.601 484.813 483.153 484.6 485.071 481.83C486.483 479.79 487.301 477.452 488.351 475.236C488.828 474.226 489.231 473.191 489.667 472.166L490.357 472.153C490.66 472.733 491.029 473.297 491.253 473.899C491.953 475.782 492.418 477.747 493.343 479.543C493.779 480.387 495.049 481.423 495.965 481.44C496.835 481.458 498.2 480.4 498.547 479.572C499.992 476.125 501.12 472.584 502.395 469.085C502.893 467.717 503.472 466.37 504.015 465.015L505.03 464.993C505.773 466.94 506.47 468.9 507.274 470.829C508.324 473.353 509.217 475.954 510.606 478.343C513.389 483.128 518.369 483.513 521.402 478.873C523.985 474.923 525.542 470.467 527.304 466.161C528.474 463.305 529.18 460.314 530.162 457.401C530.302 456.987 530.824 456.667 531.17 456.303C531.595 456.67 532.27 456.981 532.407 457.413C533.715 461.57 534.863 465.763 536.199 469.911C537.029 472.491 537.869 475.101 539.123 477.544C541.343 481.871 546.381 482.524 550.049 478.95C551.719 477.324 552.899 475.32 554.194 473.435C555.95 470.879 557.467 470.815 559.504 473.26C561.374 475.503 562.992 477.96 565.227 479.905C570.445 484.445 573.277 483.911 576.231 478.185C576.431 477.797 576.538 477.349 576.836 477.029C577.266 476.567 577.769 476.026 578.369 475.866C578.636 475.796 579.344 476.512 579.629 476.97C580.206 477.905 580.655 478.9 581.115 479.883C582.201 482.207 582.907 482.449 585.215 480.803C587.308 479.31 589.203 477.61 591.113 475.941C594.479 473.001 596.38 473.095 599.378 476.337C600.655 477.719 602.033 479.043 603.468 480.309C604.445 481.169 605.563 481.335 606.764 480.415C607.884 479.555 609.098 479.342 610.214 480.519C612.754 483.201 615.231 483.881 619.28 482.739C620.988 482.256 622.653 481.509 624.127 480.629C626.07 479.467 627.835 479.343 629.921 480.323C631.521 481.075 633.714 482.397 634.911 481.973C637.141 481.185 638.865 479.333 640.744 477.873C641.152 477.556 641.278 476.993 641.622 476.6C642.785 475.268 644.242 475.016 645.644 476.206C646.988 477.346 648.154 478.648 649.319 479.931C652.895 483.871 659.409 484.176 663.417 480.567C666.334 477.939 667.311 478.023 670.835 480.049C673.61 481.644 676.735 482.799 679.37 483.996C676.033 485.44 672.2 487.284 668.16 488.712C667.2 489.052 665.3 488.256 664.275 487.532C661.795 485.782 659.307 484.768 655.898 485.022C652.838 485.252 650.752 486.328 649.061 488.342C648.148 489.43 647.131 490.462 646.091 491.466C644.527 492.976 642.983 492.803 641.451 491.366C639.835 489.849 638.226 488.321 636.494 486.903C635.247 485.883 633.964 485.758 632.254 486.653C629.82 487.923 627.357 489 624.279 486.999C622.443 485.805 619.653 485.593 617.241 485.127C614.506 484.599 612.151 485.221 610.415 487.242C609.303 488.535 608.111 488.494 606.593 487.502C605.99 487.109 604.487 487.096 603.857 487.472C602.523 488.265 601.36 489.342 600.361 490.454C595.951 495.366 594.921 495.409 589.886 490.877C588.349 489.494 586.716 488.164 584.963 486.983C582.843 485.556 582.223 485.783 581.153 487.873C580.363 489.425 579.483 490.943 578.643 492.477L577.775 492.367C577.015 491.07 576.262 489.769 575.49 488.477C573.1 484.477 571.198 484.043 566.97 486.787C565.34 487.842 563.932 489.193 562.64 490.557C561.397 491.873 560.46 493.395 559.343 494.799C557.428 497.206 555.95 497.106 554.237 494.599C552.907 492.653 551.71 490.555 549.934 488.934C545.959 485.307 541.028 486.09 539.077 490.741C537.439 494.646 536.555 498.774 535.201 502.771C534.378 505.203 533.365 507.595 532.284 509.954C532.038 510.491 531.161 510.82 530.574 511.244C530.127 510.774 529.447 510.362 529.271 509.829C527.905 505.687 526.785 501.483 525.289 497.377C524.215 494.43 523.013 491.447 521.269 488.761C518.687 484.778 514.649 484.753 512.171 488.785C510.114 492.132 508.891 495.848 507.327 499.409C506.921 500.333 506.722 501.329 506.247 502.222C505.937 502.806 505.302 503.266 504.813 503.782C504.318 503.274 503.583 502.832 503.367 502.252C501.987 498.552 500.753 494.816 499.405 491.109C498.825 489.513 498.437 487.409 496.062 487.319C493.594 487.229 493.229 489.416 492.528 490.939C491.958 492.183 491.716 493.532 491.256 494.816C491.04 495.421 490.653 495.981 490.344 496.561C490.101 496.561 489.857 496.558 489.614 496.556L489.61 496.55Z" fill="#000005" stroke="#000005" stroke-miterlimit="10"/>
<path d="M274.373 484.09H749.373Z" fill="#000005"/>
<path d="M274.373 484.09H749.373" stroke="#000005" stroke-width="1.5"/>
<path d="M489.61 586.07C489.204 585.122 488.82 584.165 488.383 583.227C487.346 581.004 486.533 578.672 485.17 576.601C483.376 573.876 480.57 573.555 477.94 575.747C476.245 577.16 474.99 578.964 473.593 580.625C471.937 582.592 471.148 582.581 469.673 580.511C468.813 579.303 468.041 578.033 467.029 576.923C464.749 574.425 460.687 574.459 458.574 577.043C457.304 578.597 456.461 578.65 455.016 577.163C452.778 574.86 449.484 574.836 447.726 577.437C445.814 580.267 444.223 583.412 443.41 586.589C441.7 593.273 440.626 600.073 439.208 606.814C438.844 608.544 438.174 610.228 437.645 611.934L436.675 611.944C436.2 611.186 435.483 610.471 435.289 609.664C434.239 605.312 433.382 600.927 432.341 596.574C431.434 592.776 430.709 588.909 429.257 585.257C428.305 582.862 426.571 580.501 424.519 578.661C422.309 576.679 419.035 576.971 416.027 577.555C410.485 578.633 408.021 582.518 405.207 586.099C404.467 587.042 403.52 587.869 402.669 588.751C401.967 587.769 401.155 586.831 400.584 585.797C399.352 583.567 398.438 581.195 397.046 579.044C393.566 573.664 385.609 573.711 381.912 579.049C381.279 579.963 380.672 580.889 380.014 581.789C378.794 583.459 377.679 583.484 376.17 581.919C374.804 580.499 373.404 579.104 372.043 577.681C370.353 575.915 368.176 574.899 365.51 575.135C362.152 575.433 358.836 576.061 355.48 576.387C353.798 576.55 351.985 576.624 350.378 576.265C348.25 575.79 346.265 574.852 344.223 574.115C346.809 571.818 352.813 570.862 356.257 571.585C359.67 572.302 363.269 572.55 366.799 572.642C369.624 572.717 371.439 570.948 373.002 569.136C374.082 567.883 375.002 566.518 376.185 565.344C377.8 563.744 378.959 563.864 380.305 565.618C381.257 566.858 382.069 568.183 383.083 569.385C387.219 574.295 394.623 574.062 397.99 568.732C399.78 565.902 400.774 562.715 402.234 559.727C402.577 559.027 403.357 558.479 403.936 557.861C404.476 558.447 405.14 558.979 405.533 559.629C406.895 561.886 407.941 564.302 409.509 566.445C413.853 572.383 423.511 572.425 428.052 566.587C430.994 562.805 431.629 558.427 432.266 554.072C432.952 549.382 433.582 544.682 434.24 539.989C434.27 539.779 434.28 539.544 434.397 539.369C434.957 538.552 435.55 537.751 436.132 536.944C436.717 537.709 437.632 538.417 437.834 539.248C439.056 544.296 439.964 549.401 441.274 554.431C442.368 558.623 443.751 562.771 445.26 566.871C445.787 568.304 446.883 569.674 448.055 570.827C450.081 572.82 453.021 572.763 454.935 570.733C456.278 569.309 457.199 569.131 458.552 570.72C461.004 573.598 464.976 573.556 467.452 570.66C468.374 569.584 469.029 568.344 469.814 567.182C471.092 565.292 471.864 565.276 473.368 567.022C474.838 568.726 476.185 570.546 477.921 572.036C480.601 574.333 483.153 574.12 485.071 571.35C486.483 569.31 487.301 566.972 488.351 564.756C488.828 563.746 489.231 562.711 489.667 561.686L490.357 561.673C490.66 562.253 491.029 562.817 491.253 563.419C491.953 565.302 492.418 567.267 493.343 569.063C493.779 569.907 495.049 570.943 495.965 570.96C496.835 570.978 498.2 569.92 498.547 569.092C499.992 565.645 501.12 562.104 502.395 558.605C502.893 557.237 503.472 555.89 504.015 554.535L505.03 554.513C505.773 556.46 506.47 558.42 507.274 560.349C508.324 562.873 509.217 565.474 510.606 567.863C513.389 572.648 518.369 573.033 521.402 568.393C523.985 564.443 525.542 559.987 527.304 555.681C528.474 552.825 529.18 549.834 530.162 546.921C530.302 546.507 530.824 546.187 531.17 545.823C531.595 546.19 532.27 546.501 532.407 546.933C533.715 551.09 534.863 555.283 536.199 559.431C537.029 562.011 537.869 564.621 539.123 567.064C541.343 571.391 546.381 572.044 550.049 568.47C551.719 566.844 552.899 564.84 554.194 562.955C555.95 560.399 557.467 560.335 559.504 562.78C561.374 565.023 562.992 567.48 565.227 569.425C570.445 573.965 573.277 573.431 576.231 567.705C576.431 567.315 576.538 566.869 576.836 566.549C577.266 566.087 577.769 565.546 578.369 565.386C578.636 565.316 579.344 566.032 579.629 566.49C580.206 567.425 580.655 568.42 581.115 569.403C582.201 571.727 582.907 571.969 585.215 570.323C587.308 568.83 589.203 567.13 591.113 565.461C594.479 562.521 596.38 562.615 599.378 565.857C600.655 567.239 602.033 568.563 603.468 569.829C604.445 570.689 605.563 570.855 606.764 569.935C607.884 569.075 609.098 568.862 610.214 570.039C612.754 572.721 615.231 573.401 619.28 572.259C620.988 571.776 622.653 571.029 624.127 570.149C626.07 568.987 627.835 568.863 629.921 569.843C631.521 570.595 633.714 571.917 634.911 571.493C637.141 570.705 638.865 568.853 640.744 567.393C641.152 567.076 641.278 566.513 641.622 566.12C642.785 564.788 644.242 564.536 645.644 565.726C646.988 566.866 648.154 568.168 649.319 569.451C652.895 573.389 659.409 573.696 663.417 570.087C666.334 567.459 667.311 567.543 670.835 569.569C673.61 571.164 676.735 572.319 679.37 573.516C676.033 574.96 672.2 576.804 668.16 578.232C667.2 578.572 665.3 577.776 664.275 577.052C661.795 575.302 659.307 574.288 655.898 574.542C652.838 574.772 650.752 575.848 649.061 577.862C648.148 578.95 647.131 579.982 646.091 580.986C644.527 582.496 642.983 582.323 641.451 580.886C639.835 579.369 638.226 577.841 636.494 576.423C635.247 575.403 633.964 575.278 632.254 576.173C629.82 577.443 627.357 578.519 624.279 576.519C622.443 575.325 619.653 575.113 617.241 574.647C614.506 574.119 612.151 574.741 610.415 576.761C609.303 578.055 608.111 578.014 606.593 577.023C605.99 576.63 604.487 576.617 603.857 576.993C602.523 577.786 601.36 578.863 600.361 579.975C595.951 584.887 594.921 584.93 589.886 580.398C588.349 579.015 586.716 577.685 584.963 576.504C582.843 575.077 582.223 575.304 581.153 577.394C580.363 578.946 579.483 580.464 578.643 581.998L577.775 581.888C577.015 580.591 576.262 579.29 575.49 577.998C573.1 573.998 571.198 573.564 566.97 576.308C565.34 577.363 563.932 578.714 562.64 580.078C561.397 581.394 560.46 582.916 559.343 584.32C557.428 586.727 555.95 586.627 554.237 584.12C552.907 582.174 551.71 580.076 549.934 578.455C545.959 574.828 541.028 575.611 539.077 580.262C537.439 584.167 536.555 588.295 535.201 592.292C534.378 594.724 533.365 597.116 532.284 599.475C532.038 600.012 531.161 600.341 530.574 600.765C530.127 600.295 529.447 599.883 529.271 599.35C527.905 595.208 526.785 591.004 525.289 586.898C524.215 583.951 523.013 580.968 521.269 578.282C518.687 574.299 514.649 574.274 512.171 578.306C510.114 581.653 508.891 585.369 507.327 588.93C506.921 589.854 506.722 590.85 506.247 591.743C505.937 592.327 505.302 592.787 504.813 593.303C504.318 592.795 503.583 592.353 503.367 591.773C501.987 588.073 500.753 584.337 499.405 580.63C498.825 579.034 498.437 576.93 496.062 576.84C493.594 576.75 493.229 578.937 492.528 580.46C491.958 581.704 491.716 583.053 491.256 584.337C491.04 584.942 490.653 585.502 490.344 586.082C490.101 586.082 489.857 586.079 489.614 586.077L489.61 586.07Z" fill="#000005" stroke="#000005" stroke-miterlimit="10"/>
<path d="M274.373 573.61H749.373Z" fill="#000005"/>
<path d="M274.373 573.61H749.373" stroke="#000005" stroke-width="1.5"/>
<path d="M344.373 442.423V619.923" stroke="#2B4261" stroke-width="2" stroke-miterlimit="10"/>
<path d="M449.373 442.423V619.923" stroke="#8A653C" stroke-width="2" stroke-miterlimit="10"/>
<path d="M334.373 437.423H354.373V442.423H334.373V437.423Z" fill="#2B4261"/>
<path d="M439.373 437.423H459.373V442.423H439.373V437.423Z" fill="#8A653C"/>
<path d="M334.373 617.423H354.373V622.423H334.373V617.423Z" fill="#2B4261"/>
<path d="M439.373 617.423H459.373V622.423H439.373V617.423Z" fill="#8A653C"/>
<path d="M681.873 442.423V619.923" stroke="#E52817" stroke-width="2" stroke-miterlimit="10"/>
<path d="M671.873 437.423H691.873V442.423H671.873V437.423ZM671.873 617.423H691.873V622.423H671.873V617.423Z" fill="#E52817"/>
<path d="M279.373 446.422V456.422H287.186" stroke="#000005" stroke-width="1.5" stroke-linecap="square"/>
<path d="M279.373 546.94V536.942H284.873C286.253 536.942 287.373 538.062 287.373 539.442C287.373 540.822 286.256 541.942 284.875 541.942H279.373" stroke="#000005" stroke-width="1.5" stroke-linecap="square"/>
<path d="M283.373 542.193L287.123 546.693V546.943" stroke="#000005" stroke-width="1.5" stroke-linecap="square"/>
<path d="M447.058 426.044V424.671" stroke="#8A653C" stroke-width="1.5" stroke-linecap="square"/>
</g>
<defs>
<clipPath id="clip0_1991_227">
<rect width="1024" height="1024" fill="white"/>
</clipPath>
</defs>
</svg>
