<svg width="500" height="362" viewBox="0 0 500 362" fill="none" xmlns="http://www.w3.org/2000/svg">
<g clip-path="url(#clip0_1_2)">
<path d="M416.78 343.49H449.9V343.74H416.78V343.49ZM322.53 346.21H331.22V346.46H322.53V346.21ZM396.59 334.21H415.78V334.46H396.59V334.21ZM52.46 335.89H95.65V336.14H52.46V335.89ZM104.56 335.89H110.89V336.14H104.56V335.89ZM131.47 340.11H225.15V340.36H131.47V340.11ZM237 282.8H43.92C42.4056 282.8 40.9533 282.198 39.8824 281.128C38.8116 280.057 38.21 278.604 38.21 277.09V5.66C38.2232 4.15429 38.8306 2.71475 39.9 1.65471C40.9694 0.594662 42.4142 -5.77259e-05 43.92 4.20255e-09H237C238.514 4.20256e-09 239.967 0.601588 241.038 1.67242C242.108 2.74325 242.71 4.19561 242.71 5.71V277.09C242.71 278.604 242.108 280.057 241.038 281.128C239.967 282.198 238.514 282.8 237 282.8ZM43.92 0.200001C42.4727 0.202644 41.0855 0.77874 40.0621 1.80212C39.0387 2.82549 38.4626 4.21273 38.46 5.66V277.09C38.4626 278.537 39.0387 279.924 40.0621 280.948C41.0855 281.971 42.4727 282.547 43.92 282.55H237C238.447 282.547 239.835 281.971 240.858 280.948C241.881 279.924 242.457 278.537 242.46 277.09V5.66C242.457 4.21273 241.881 2.82549 240.858 1.80212C239.835 0.77874 238.447 0.202644 237 0.200001H43.92ZM453.31 282.8H260.21C258.696 282.797 257.246 282.195 256.175 281.125C255.105 280.054 254.503 278.604 254.5 277.09V5.66C254.516 4.15511 255.124 2.71708 256.193 1.65759C257.262 0.598109 258.705 0.00254829 260.21 4.20255e-09H453.31C454.812 0.0052045 456.252 0.602249 457.317 1.66173C458.382 2.72121 458.987 4.15775 459 5.66V277.09C459 278.601 458.401 280.05 457.335 281.121C456.268 282.191 454.821 282.795 453.31 282.8ZM260.21 0.200001C258.763 0.202644 257.375 0.77874 256.352 1.80212C255.329 2.82549 254.753 4.21273 254.75 5.66V277.09C254.753 278.537 255.329 279.924 256.352 280.948C257.375 281.971 258.763 282.547 260.21 282.55H453.31C454.757 282.547 456.145 281.971 457.168 280.948C458.191 279.924 458.767 278.537 458.77 277.09V5.66C458.767 4.21273 458.191 2.82549 457.168 1.80212C456.145 0.77874 454.757 0.202644 453.31 0.200001H260.21ZM0 327.4H500V327.65H0V327.4Z" fill="#EBEBEB"/>
<path d="M140.74 161.48L143.88 159.83L143.28 163.32L145.82 165.8L142.31 166.31L140.74 169.49L139.17 166.31L135.66 165.8L138.2 163.32L137.6 159.83L140.74 161.48Z" fill="#E0E0E0"/>
<path d="M320.17 86.9C297.73 79.9 280.11 66.33 324.11 47.83C368.11 29.33 356.61 87.59 391.11 91.71C425.61 95.83 446.29 106.43 404.9 127.08C363.51 147.73 373.29 103.38 320.17 86.9ZM150.27 27.07L154.81 24.68L153.95 29.74L157.62 33.32L152.54 34.06L150.27 38.66L148 34.06L142.93 33.32L146.6 29.74L145.73 24.68L150.27 27.07ZM427.87 191.12L436.95 186.35L435.22 196.46L442.56 203.62L432.41 205.1L427.87 214.3L423.33 205.1L413.18 203.62L420.52 196.46L418.79 186.35L427.87 191.12Z" fill="#F5F5F5"/>
<path d="M351.41 25.65L357.36 22.52L356.22 29.14L361.03 33.83L354.39 34.79L351.41 40.82L348.44 34.79L341.8 33.83L346.61 29.14L345.47 22.52L351.41 25.65Z" fill="#F0F0F0"/>
<path d="M65.34 129.28L68.48 127.63L67.88 131.13L70.42 133.6L66.91 134.11L65.34 137.29L63.77 134.11L60.27 133.6L62.8 131.13L62.21 127.63L65.34 129.28ZM104.34 88.84L107.48 87.19L106.88 90.68L109.42 93.15L105.91 93.66L104.34 96.84L102.77 93.66L99.27 93.15L101.8 90.68L101.2 87.19L104.34 88.84ZM404.9 57.87L408.04 56.22L407.44 59.71L409.98 62.19L406.47 62.69L404.9 65.87L403.33 62.69L399.82 62.19L402.36 59.71L401.76 56.22L404.9 57.87Z" fill="#F5F5F5"/>
<path d="M331.45 76.76L334.59 75.11L333.99 78.61L336.53 81.08L333.02 81.59L331.45 84.77L329.89 81.59L326.38 81.08L328.92 78.61L328.32 75.11L331.45 76.76Z" fill="#FAFAFA"/>
<path d="M334.9 60.08L333.08 61.05L333.43 59.01L331.94 57.57L333.99 57.27L334.9 55.42L335.82 57.27L337.86 57.57L336.38 59.01L336.73 61.05L334.9 60.08ZM221.91 46.06L220.08 47.03L220.43 44.99L218.95 43.55L221 43.25L221.91 41.4L222.83 43.25L224.87 43.55L223.39 44.99L223.74 47.03L221.91 46.06Z" fill="#E6E6E6"/>
<path d="M399.72 117.94L402.86 116.29L402.26 119.79L404.8 122.26L401.29 122.77L399.72 125.95L398.15 122.77L394.65 122.26L397.19 119.79L396.59 116.29L399.72 117.94Z" fill="#FAFAFA"/>
<path d="M366.94 303.74L370.07 302.09L369.47 305.58L372.01 308.06L368.5 308.57L366.94 311.75L365.37 308.57L361.86 308.06L364.4 305.58L363.8 302.09L366.94 303.74Z" fill="#F5F5F5"/>
<path d="M296.36 33.98L299.57 32.29L298.96 35.87L301.56 38.4L297.96 38.93L296.36 42.18L294.75 38.93L291.15 38.4L293.75 35.87L293.14 32.29L296.36 33.98Z" fill="#F0F0F0"/>
<path d="M54.05 207.65C64.56 198.95 104.94 169.17 107.9 198.92C110.86 228.67 161.53 226.04 140.25 236.82C118.97 247.6 31.58 226.24 54.05 207.65Z" fill="#F5F5F5"/>
<path d="M71.31 206.57L74.45 204.92L73.85 208.41L76.39 210.89L72.88 211.4L71.31 214.58L69.74 211.4L66.23 210.89L68.77 208.41L68.17 204.92L71.31 206.57Z" fill="#E0E0E0"/>
<path d="M116.83 224.32L118.88 223.24L118.49 225.53L120.15 227.15L117.86 227.49L116.83 229.57L115.8 227.49L113.51 227.15L115.17 225.53L114.78 223.24L116.83 224.32Z" fill="#FAFAFA"/>
<path d="M421.86 255.63L424.99 253.98L424.39 257.47L426.93 259.95L423.43 260.46L421.86 263.64L420.29 260.46L416.78 259.95L419.32 257.47L418.72 253.98L421.86 255.63Z" fill="#E0E0E0"/>
<path d="M125.58 304C124.702 305.639 123.358 306.981 121.717 307.856C120.076 308.731 118.213 309.1 116.362 308.916C114.512 308.731 112.758 308.002 111.322 306.821C109.886 305.64 108.832 304.059 108.295 302.279C107.757 300.498 107.76 298.599 108.302 296.82C108.845 295.041 109.903 293.464 111.342 292.286C112.781 291.109 114.537 290.385 116.388 290.206C118.239 290.027 120.102 290.4 121.74 291.28C122.828 291.863 123.79 292.654 124.572 293.609C125.354 294.563 125.94 295.663 126.297 296.844C126.653 298.025 126.773 299.265 126.65 300.493C126.528 301.721 126.164 302.913 125.58 304Z" fill="#F0F0F0"/>
<path d="M126.31 302.26C126.185 302.68 126.031 303.091 125.85 303.49C129.34 305.77 131.46 307.56 131.15 308.14C130.64 309.09 123.82 306.42 115.91 302.14C108 297.86 102 293.7 102.51 292.75C102.82 292.17 105.51 292.94 109.31 294.59C109.55 294.219 109.81 293.862 110.09 293.52C101.29 289.32 94.66 287.05 94.09 288.22C93.28 289.73 102.83 296.42 115.41 303.16C127.99 309.9 138.86 314.16 139.67 312.64C140.25 311.51 134.68 307.25 126.31 302.26Z" fill="#E0E0E0"/>
<path d="M316.35 208.61L319.49 206.96L318.89 210.46L321.43 212.93L317.92 213.44L316.35 216.62L314.78 213.44L311.28 212.93L313.81 210.46L313.21 206.96L316.35 208.61Z" fill="#EBEBEB"/>
<path d="M406.87 160.51C404.2 155.28 393.8 158.05 382.5 162.51C381.948 162.73 381.348 162.803 380.759 162.723C380.171 162.642 379.613 162.41 379.14 162.05C377.916 161.127 376.468 160.545 374.945 160.364C373.423 160.183 371.879 160.408 370.472 161.018C369.065 161.628 367.845 162.601 366.937 163.836C366.028 165.071 365.463 166.525 365.3 168.05C365.237 168.658 365.014 169.238 364.654 169.731C364.294 170.225 363.809 170.614 363.25 170.86C355.31 174.3 349.25 176.54 348.43 174.49C345.94 168.32 379.12 155.16 379.12 155.16C379.12 155.16 334.4 168.56 341.56 179.38C344.32 183.56 353.56 181.1 363.96 176.82C365.006 176.406 366.125 176.206 367.25 176.232C368.375 176.258 369.484 176.509 370.51 176.97C371.64 177.456 372.861 177.696 374.091 177.673C375.321 177.65 376.532 177.365 377.643 176.837C378.754 176.309 379.74 175.55 380.534 174.611C381.329 173.671 381.914 172.573 382.25 171.39C382.58 170.301 383.139 169.295 383.892 168.441C384.644 167.587 385.571 166.904 386.61 166.44C394.67 162.68 400.78 160.18 401.61 162C404.12 167.48 368.19 183 368.19 183C368.19 183 413.21 172.92 406.87 160.51Z" fill="#F0F0F0"/>
<path d="M199.32 361.51C240.83 361.51 274.48 358.054 274.48 353.79C274.48 349.526 240.83 346.07 199.32 346.07C157.81 346.07 124.16 349.526 124.16 353.79C124.16 358.054 157.81 361.51 199.32 361.51Z" fill="#F5F5F5"/>
<path d="M336.53 357.69C357.285 357.69 374.11 355.089 374.11 351.88C374.11 348.671 357.285 346.07 336.53 346.07C315.775 346.07 298.95 348.671 298.95 351.88C298.95 355.089 315.775 357.69 336.53 357.69Z" fill="#F5F5F5"/>
<path d="M296.7 276.18C296.7 276.06 296.63 275.94 296.59 275.82C296.02 274.3 293.86 273.69 293.86 273.69C293.369 274.465 293.09 275.354 293.05 276.27L292.73 276.38L292.41 276.51C291.78 275.845 290.987 275.356 290.11 275.09C290.11 275.09 288.87 276.96 289.44 278.49L289.59 278.83C289.336 279.198 289.172 279.62 289.109 280.063C289.047 280.505 289.088 280.956 289.23 281.38C289.89 283.17 292.55 283.84 295.15 282.87C297.75 281.9 299.32 279.66 298.65 277.87C298.476 277.458 298.21 277.091 297.872 276.798C297.534 276.505 297.133 276.293 296.7 276.18Z" fill="#FFC100"/>
<path opacity="0.8" d="M296.7 276.18C296.7 276.06 296.63 275.94 296.59 275.82C296.02 274.3 293.86 273.69 293.86 273.69C293.369 274.465 293.09 275.354 293.05 276.27L292.73 276.38L292.41 276.51C291.78 275.845 290.987 275.356 290.11 275.09C290.11 275.09 288.87 276.96 289.44 278.49L289.59 278.83C289.336 279.198 289.172 279.62 289.109 280.063C289.047 280.505 289.088 280.956 289.23 281.38C289.89 283.17 292.55 283.84 295.15 282.87C297.75 281.9 299.32 279.66 298.65 277.87C298.476 277.458 298.21 277.091 297.872 276.798C297.534 276.505 297.133 276.293 296.7 276.18Z" fill="white"/>
<path d="M300.66 230C288.79 230.74 274.72 313.65 261.78 308.44C256.3 306.24 251.41 287.25 247.6 266.11L243.15 267.76C245.8 281.12 258.46 338.45 274.28 303.29C292.1 263.67 297.36 202.89 310.41 251.13L311.85 250.44C311.85 250.44 308.15 229.53 300.66 230Z" fill="#FFC100"/>
<path opacity="0.3" d="M300.66 230C288.79 230.74 274.72 313.65 261.78 308.44C256.3 306.24 251.41 287.25 247.6 266.11L243.15 267.76C245.8 281.12 258.46 338.45 274.28 303.29C292.1 263.67 297.36 202.89 310.41 251.13L311.85 250.44C311.85 250.44 308.15 229.53 300.66 230Z" fill="black"/>
<path d="M318.19 242.62C318.19 242.62 320.07 228.77 335.63 216.17C351.19 203.57 361.74 212.11 361.74 212.11L365.89 214.83L366.1 226.47L360.2 236.74L345.52 248.39L330.36 252.67L323 249.36L318.19 242.62Z" fill="#FFC100"/>
<path opacity="0.5" d="M318.19 242.62C318.19 242.62 320.07 228.77 335.63 216.17C351.19 203.57 361.74 212.11 361.74 212.11L365.89 214.83L366.1 226.47L360.2 236.74L345.52 248.39L330.36 252.67L323 249.36L318.19 242.62Z" fill="white"/>
<path d="M283.79 252.34L307.47 262.34L323.53 251.5L299.53 246.8C296.791 246.265 293.974 246.275 291.239 246.829C288.504 247.383 285.904 248.471 283.59 250.03C283.386 250.157 283.221 250.337 283.114 250.552C283.006 250.767 282.96 251.007 282.981 251.246C283.002 251.486 283.088 251.714 283.231 251.907C283.374 252.101 283.567 252.25 283.79 252.34ZM313.86 296.92L313.43 271.2L329.49 260.37L324.86 284.37C324.327 287.113 323.258 289.724 321.713 292.053C320.169 294.381 318.18 296.382 315.86 297.94C315.669 298.063 315.449 298.133 315.222 298.144C314.995 298.156 314.77 298.107 314.567 298.004C314.365 297.901 314.193 297.746 314.069 297.556C313.945 297.366 313.873 297.147 313.86 296.92Z" fill="#263238"/>
<g opacity="0.5">
<path d="M283.79 252.34L307.47 262.34L323.53 251.5L299.53 246.8C296.791 246.265 293.974 246.275 291.239 246.829C288.504 247.383 285.904 248.471 283.59 250.03C283.386 250.157 283.221 250.337 283.114 250.552C283.006 250.767 282.96 251.007 282.981 251.246C283.002 251.486 283.088 251.714 283.231 251.907C283.374 252.101 283.567 252.25 283.79 252.34ZM313.86 296.92L313.43 271.2L329.49 260.37L324.86 284.37C324.327 287.113 323.258 289.724 321.713 292.053C320.169 294.381 318.18 296.382 315.86 297.94C315.669 298.063 315.449 298.133 315.222 298.144C314.995 298.156 314.77 298.107 314.567 298.004C314.365 297.901 314.193 297.746 314.069 297.556C313.945 297.366 313.873 297.147 313.86 296.92Z" fill="white"/>
</g>
<path d="M392.36 208.9C383.248 207.771 374.001 208.485 365.17 211L366.96 220.54L366.1 226.45L356.85 239.45L347.37 245.85L334 251.15L323 249.36L315.61 245C310.42 249.83 305.27 254.92 300.61 259.89C302.44 263.05 304.43 266.23 306.61 269.39C308.79 272.55 310.94 275.58 313.19 278.46C333.72 270.62 357.38 258.05 366.89 251.63C380.62 242.398 390.539 228.504 394.81 212.52C394.914 212.12 394.932 211.702 394.862 211.294C394.792 210.886 394.636 210.498 394.404 210.156C394.172 209.813 393.87 209.524 393.517 209.308C393.165 209.091 392.77 208.952 392.36 208.9Z" fill="#263238"/>
<path opacity="0.6" d="M392.36 208.9C383.248 207.771 374.001 208.485 365.17 211L366.96 220.54L366.1 226.45L356.85 239.45L347.37 245.85L334 251.15L323 249.36L315.61 245C310.42 249.83 305.27 254.92 300.61 259.89C302.44 263.05 304.43 266.23 306.61 269.39C308.79 272.55 310.94 275.58 313.19 278.46C333.72 270.62 357.38 258.05 366.89 251.63C380.62 242.398 390.539 228.504 394.81 212.52C394.914 212.12 394.932 211.702 394.862 211.294C394.792 210.886 394.636 210.498 394.404 210.156C394.172 209.813 393.87 209.524 393.517 209.308C393.165 209.091 392.77 208.952 392.36 208.9Z" fill="white"/>
<path d="M306.6 269.39C304.6 266.47 302.8 263.55 301.08 260.63C299.43 262.29 297.81 263.96 296.27 265.63C297.73 268.137 299.307 270.65 301 273.17C302.693 275.69 304.437 278.093 306.23 280.38C308.34 279.57 310.49 278.7 312.65 277.79C310.59 275.1 308.56 272.3 306.6 269.39Z" fill="#263238"/>
<path opacity="0.1" d="M393.88 211.16C385.35 220.07 373.19 230.16 358.88 239.82C349.58 246.09 327.88 259.9 309.73 270.73C309.566 270.829 309.424 270.96 309.312 271.115C309.2 271.271 309.12 271.447 309.078 271.634C309.036 271.821 309.033 272.014 309.067 272.203C309.102 272.391 309.174 272.57 309.28 272.73L310.9 275.12C311.084 275.401 311.363 275.606 311.686 275.7C312.009 275.793 312.354 275.769 312.66 275.63C332.25 266.77 354.85 253.98 364.19 247.63C378.11 238.25 388.33 225.9 394.02 213.01C394.152 212.702 394.205 212.366 394.174 212.032C394.142 211.698 394.028 211.378 393.84 211.1L393.88 211.16Z" fill="black"/>
<g opacity="0.4">
<path d="M319.05 247C313.58 251.67 308.05 256.58 303.05 261.36C302.766 261.619 302.597 261.979 302.579 262.363C302.561 262.746 302.696 263.121 302.955 263.405C303.214 263.689 303.574 263.858 303.958 263.876C304.341 263.894 304.716 263.759 305 263.5C310.57 258.75 316.65 253.81 322.62 249.11L319.05 247ZM365.89 214.83L366.65 218.88C374.981 214.673 383.846 211.619 393 209.8L392.69 209.35C383.502 209.57 374.427 211.425 365.89 214.83Z" fill="white"/>
</g>
<path d="M366.76 210.6C365.073 211.04 363.407 211.543 361.76 212.11C363.99 217.28 364.6 221.82 363.62 225.85C362.22 231.62 357.44 236.99 349.02 242.27C340.6 247.55 333.68 249.51 327.88 248.27C324.182 247.353 320.825 245.392 318.21 242.62C316.93 243.787 315.653 244.97 314.38 246.17C324.52 256.28 336.38 256.34 351.79 246.69C368 236.53 372.8 225.17 366.76 210.6Z" fill="#263238"/>
<path opacity="0.5" d="M366.76 210.6C365.073 211.04 363.407 211.543 361.76 212.11C363.99 217.28 364.6 221.82 363.62 225.85C362.22 231.62 357.44 236.99 349.02 242.27C340.6 247.55 333.68 249.51 327.88 248.27C324.182 247.353 320.825 245.392 318.21 242.62C316.93 243.787 315.653 244.97 314.38 246.17C324.52 256.28 336.38 256.34 351.79 246.69C368 236.53 372.8 225.17 366.76 210.6Z" fill="white"/>
<g opacity="0.2">
<path d="M326.64 249.49C326.785 249.719 326.859 249.987 326.853 250.258C326.846 250.529 326.758 250.793 326.602 251.014C326.445 251.236 326.226 251.406 325.972 251.503C325.719 251.6 325.442 251.62 325.178 251.559C324.913 251.499 324.672 251.361 324.486 251.163C324.3 250.966 324.176 250.717 324.132 250.449C324.087 250.182 324.123 249.907 324.235 249.659C324.347 249.412 324.529 249.203 324.76 249.06C325.067 248.869 325.436 248.808 325.788 248.888C326.141 248.969 326.447 249.185 326.64 249.49ZM341.13 249.08C341.274 249.309 341.347 249.576 341.34 249.847C341.332 250.118 341.245 250.38 341.088 250.601C340.931 250.822 340.713 250.992 340.459 251.089C340.206 251.186 339.93 251.205 339.666 251.145C339.402 251.085 339.162 250.948 338.975 250.751C338.789 250.554 338.665 250.307 338.62 250.04C338.574 249.773 338.609 249.498 338.719 249.251C338.83 249.004 339.011 248.794 339.24 248.65C339.392 248.554 339.562 248.489 339.739 248.459C339.917 248.428 340.099 248.433 340.274 248.473C340.45 248.513 340.616 248.587 340.762 248.692C340.909 248.796 341.034 248.928 341.13 249.08ZM354.8 241.5C354.942 241.728 355.014 241.993 355.006 242.261C354.997 242.53 354.91 242.79 354.754 243.009C354.598 243.228 354.381 243.396 354.13 243.491C353.879 243.587 353.605 243.606 353.343 243.546C353.081 243.486 352.843 243.35 352.658 243.154C352.473 242.959 352.351 242.714 352.306 242.449C352.26 242.184 352.295 241.912 352.404 241.666C352.513 241.421 352.693 241.213 352.92 241.07C353.072 240.974 353.24 240.91 353.417 240.879C353.594 240.849 353.775 240.854 353.949 240.894C354.124 240.934 354.289 241.008 354.435 241.112C354.581 241.216 354.705 241.348 354.8 241.5ZM365 231.36C365.145 231.589 365.219 231.857 365.213 232.128C365.206 232.399 365.118 232.663 364.962 232.884C364.805 233.106 364.586 233.276 364.332 233.373C364.079 233.47 363.802 233.49 363.538 233.429C363.273 233.369 363.032 233.231 362.846 233.033C362.66 232.836 362.536 232.587 362.492 232.319C362.447 232.052 362.483 231.777 362.595 231.529C362.707 231.282 362.889 231.073 363.12 230.93C363.272 230.834 363.44 230.77 363.617 230.739C363.794 230.709 363.975 230.714 364.149 230.754C364.324 230.794 364.489 230.868 364.635 230.972C364.781 231.076 364.905 231.208 365 231.36ZM367.3 216.83C367.444 217.059 367.517 217.326 367.51 217.597C367.502 217.868 367.415 218.13 367.258 218.351C367.101 218.572 366.883 218.742 366.63 218.839C366.376 218.936 366.1 218.955 365.836 218.895C365.572 218.835 365.332 218.698 365.145 218.501C364.959 218.304 364.835 218.057 364.79 217.79C364.744 217.523 364.779 217.248 364.889 217.001C364.999 216.754 365.181 216.544 365.41 216.4C365.562 216.303 365.732 216.237 365.909 216.206C366.087 216.175 366.269 216.179 366.445 216.219C366.621 216.259 366.787 216.334 366.934 216.439C367.081 216.544 367.205 216.677 367.3 216.83Z" fill="black"/>
</g>
<path d="M369.63 209.92C373.558 218.49 378.865 226.358 385.34 233.21C389.623 226.888 392.821 219.895 394.8 212.52C394.904 212.12 394.922 211.703 394.853 211.296C394.783 210.889 394.628 210.502 394.397 210.159C394.166 209.817 393.865 209.527 393.514 209.31C393.163 209.093 392.769 208.953 392.36 208.9C384.779 207.975 377.097 208.32 369.63 209.92Z" fill="#FFC100"/>
<path d="M321.6 259.27C322.69 260.9 317.6 266.27 315.97 267.35C314.34 268.43 295.52 279.23 294.42 277.6C293.32 275.97 310.36 262.6 311.99 261.46C313.62 260.32 320.5 257.64 321.6 259.27Z" fill="#263238"/>
<path opacity="0.5" d="M321.6 259.27C322.69 260.9 317.6 266.27 315.97 267.35C314.34 268.43 295.52 279.23 294.42 277.6C293.32 275.97 310.36 262.6 311.99 261.46C313.62 260.32 320.5 257.64 321.6 259.27ZM345.55 213.81C342.374 214.869 339.429 216.522 336.87 218.68C324.04 229.08 322.49 240.51 322.49 240.51L323.63 242.1C324.85 237.96 328.45 229.21 338.54 221.04C340.965 219.014 343.7 217.39 346.64 216.23L345.55 213.81ZM350.83 213L351.37 215C353.673 214.71 356.011 214.928 358.22 215.64L358.08 215.05C355.906 213.695 353.392 212.984 350.83 213Z" fill="white"/>
<path d="M137.24 175.63H136.87C135.273 175.628 133.711 176.097 132.38 176.98H132.32C118.936 185.682 109.089 198.865 104.541 214.167C99.9943 229.47 101.045 245.891 107.505 260.489C113.965 275.087 125.413 286.908 139.797 293.833C154.18 300.758 170.56 302.334 186 298.28C186.617 298.124 187.178 297.798 187.62 297.34L187.68 297.28C188.13 296.818 188.44 296.238 188.574 295.607C188.708 294.976 188.661 294.32 188.439 293.714C188.216 293.109 187.827 292.579 187.315 292.185C186.804 291.792 186.192 291.551 185.55 291.49C174.271 290.491 163.482 286.416 154.36 279.708C145.238 273 138.131 263.917 133.816 253.448C129.5 242.98 128.14 231.528 129.885 220.34C131.63 209.152 136.412 198.657 143.71 190C144.763 188.738 145.441 187.205 145.664 185.576C145.887 183.948 145.648 182.289 144.973 180.79C144.298 179.291 143.215 178.012 141.847 177.1C140.48 176.187 138.883 175.678 137.24 175.63Z" fill="#FFC100"/>
<path opacity="0.5" d="M187.68 297.28L187.62 297.34C187.178 297.793 186.622 298.118 186.01 298.28C173.208 301.624 159.704 301.116 147.19 296.82C144.692 295.969 142.247 294.967 139.87 293.82C128.832 288.505 119.457 280.274 112.759 270.015C106.062 259.757 102.296 247.864 101.87 235.62L101.96 229.25C102.593 218.776 105.668 208.595 110.94 199.522C116.211 190.449 123.533 182.736 132.32 177H132.38C133.714 176.116 135.28 175.646 136.88 175.65H137.25C138.89 175.699 140.484 176.208 141.849 177.119C143.214 178.031 144.295 179.308 144.969 180.804C145.642 182.301 145.882 183.957 145.659 185.583C145.437 187.209 144.761 188.74 143.71 190C136.259 198.863 131.442 209.638 129.805 221.101C128.169 232.563 129.778 244.255 134.45 254.85C135.01 256.13 135.63 257.4 136.29 258.66C137.183 260.34 138.16 262.007 139.22 263.66C145.473 273.293 154.3 280.98 164.7 285.85C165.98 286.46 167.27 287.01 168.58 287.52C174.03 289.649 179.753 290.995 185.58 291.52C186.214 291.59 186.815 291.835 187.317 292.229C187.819 292.623 188.2 293.149 188.418 293.748C188.637 294.347 188.683 294.995 188.553 295.619C188.422 296.243 188.12 296.819 187.68 297.28Z" fill="white"/>
<path opacity="0.1" d="M188.41 293.66C188.19 293.063 187.804 292.541 187.297 292.157C186.791 291.772 186.184 291.541 185.55 291.49C174.271 290.491 163.482 286.416 154.36 279.708C145.238 273 138.131 263.917 133.816 253.448C129.5 242.98 128.14 231.528 129.885 220.34C131.63 209.152 136.412 198.657 143.71 190C144.724 188.807 145.394 187.36 145.649 185.816C145.905 184.271 145.736 182.686 145.16 181.23C144.066 181.284 143.006 181.629 142.09 182.23H142.04C116.69 198.75 111.29 235.38 129.97 264.04C143.82 285.31 167 296.18 188.41 293.66Z" fill="black"/>
<path d="M188.89 291C187.09 289.34 185.62 290.36 184.75 291.41L185.55 291.51C186.192 291.571 186.804 291.812 187.315 292.205C187.827 292.599 188.216 293.129 188.439 293.734C188.661 294.34 188.708 294.996 188.574 295.627C188.44 296.258 188.13 296.838 187.68 297.3L187.62 297.36C187.383 297.6 187.114 297.805 186.82 297.97C190.09 301.05 191.94 293.78 188.89 291Z" fill="#FFC100"/>
<g opacity="0.2">
<path d="M188.89 291C187.09 289.34 185.62 290.36 184.75 291.41L185.55 291.51C186.192 291.571 186.804 291.812 187.315 292.205C187.827 292.599 188.216 293.129 188.439 293.734C188.661 294.34 188.708 294.996 188.574 295.627C188.44 296.258 188.13 296.838 187.68 297.3L187.62 297.36C187.383 297.6 187.114 297.805 186.82 297.97C190.09 301.05 191.94 293.78 188.89 291Z" fill="white"/>
</g>
<path d="M210.71 198.23C206.92 192.53 202.87 190.46 204.64 170.8C206.41 151.14 185.43 146.91 178.53 153.53C171.63 160.15 177.31 172.23 190.92 173.9C190.92 173.9 179.01 231.47 207.42 218.9C211.8 217 216.55 207 210.71 198.23Z" fill="#FFC100"/>
<path opacity="0.5" d="M210.71 198.23C206.92 192.53 202.87 190.46 204.64 170.8C206.41 151.14 185.43 146.91 178.53 153.53C171.63 160.15 177.31 172.23 190.92 173.9C190.92 173.9 179.01 231.47 207.42 218.9C211.8 217 216.55 207 210.71 198.23Z" fill="white"/>
<path d="M190.7 171.5C187.36 171.12 175.79 165.57 184.41 159.63C193.03 153.69 204.34 173 190.7 171.5Z" fill="#FFC100"/>
<path d="M190.62 176.11C196.77 176.49 202.42 172.57 205.62 167.65C206.42 166.44 204.47 165.31 203.68 166.51C200.85 170.8 195.92 174.19 190.57 173.86C189.12 173.77 189.13 176.02 190.57 176.11H190.62Z" fill="#FFC100"/>
<g opacity="0.2">
<path d="M190.7 171.5C187.36 171.12 175.79 165.57 184.41 159.63C193.03 153.69 204.34 173 190.7 171.5Z" fill="white"/>
<path d="M190.62 176.11C196.77 176.49 202.42 172.57 205.62 167.65C206.42 166.44 204.47 165.31 203.68 166.51C200.85 170.8 195.92 174.19 190.57 173.86C189.12 173.77 189.13 176.02 190.57 176.11H190.62Z" fill="white"/>
</g>
<path opacity="0.1" d="M207.42 218.91C211.8 216.98 216.55 207.02 210.71 198.23C209.8 196.86 208.88 195.71 208.02 194.47C203.882 202.581 198.757 210.148 192.76 217C195.63 220.77 200.23 222.09 207.42 218.91Z" fill="black"/>
<path d="M191.75 267.67C194.2 260.5 195.13 217.79 169.29 247.35C169.29 247.35 171.6 209.73 154.75 219.55C136.16 230.39 154.08 238.44 150.86 259.82C147.64 281.2 167.33 266 167.33 266C167.33 266 179.39 303.87 191.75 267.67Z" fill="#FFC100"/>
<path opacity="0.5" d="M191.75 267.67C194.2 260.5 195.13 217.79 169.29 247.35C169.29 247.35 171.6 209.73 154.75 219.55C136.16 230.39 154.08 238.44 150.86 259.82C147.64 281.2 167.33 266 167.33 266C167.33 266 179.39 303.87 191.75 267.67Z" fill="white"/>
<path d="M151 222.11C138.94 231.76 153.84 240.11 150.88 259.82C150.356 262.35 150.356 264.96 150.88 267.49C151.19 267.94 160.62 281.39 164.1 247C167.55 213.27 152.09 221.48 151 222.11Z" fill="#FFC100"/>
<path opacity="0.2" d="M151 222.11C138.94 231.76 153.84 240.11 150.88 259.82C150.356 262.35 150.356 264.96 150.88 267.49C151.19 267.94 160.62 281.39 164.1 247C167.55 213.27 152.09 221.48 151 222.11Z" fill="white"/>
<g opacity="0.5">
<path d="M149.88 230.78L157.88 224.78C158.65 224.2 157.88 222.9 157.13 223.48L149.13 229.48C148.36 230.05 149.13 231.36 149.88 230.78ZM151 237.2L160.81 230.83C161.61 230.31 160.81 229.01 160.05 229.54L150.24 235.91C149.43 236.43 150.18 237.73 151 237.2ZM152.46 243.82L162.27 237.45C163.08 236.92 162.33 235.62 161.51 236.15L151.7 242.52C150.9 243.05 151.7 244.35 152.46 243.82ZM153.51 251L161.65 245.72C162.46 245.19 161.71 243.89 160.9 244.42L152.76 249.71C151.95 250.23 152.7 251.53 153.51 251ZM153.55 257.79L160.66 253.17C161.46 252.65 160.71 251.35 159.9 251.88L152.79 256.49C151.99 257.02 152.79 258.32 153.55 257.79ZM153.07 264.84L160.18 260.23C160.99 259.7 160.18 258.4 159.42 258.93L152.32 263.55C151.51 264.07 152.26 265.37 153.07 264.84Z" fill="white"/>
</g>
<path d="M169.25 245.71C169.5 252.92 167.53 260.32 165.25 267.07C164.78 268.44 166.95 269.07 167.42 267.67C169.78 260.75 171.78 253.1 171.52 245.67C171.47 244.22 169.22 244.21 169.27 245.67L169.25 245.71Z" fill="#FFC100"/>
<g opacity="0.2">
<path d="M169.25 245.71C169.5 252.92 167.53 260.32 165.25 267.07C164.78 268.44 166.95 269.07 167.42 267.67C169.78 260.75 171.78 253.1 171.52 245.67C171.47 244.22 169.22 244.21 169.27 245.67L169.25 245.71Z" fill="white"/>
</g>
<path opacity="0.1" d="M170.8 274.27C175.27 282.87 183.44 292 191.75 267.67C193.68 262.02 194.66 234.3 182.34 237.27C180.965 239.124 179.69 241.05 178.52 243.04C175.17 248.85 170.53 262.1 170.8 274.27Z" fill="black"/>
<path d="M260.82 211.06C260.82 211.06 284.82 270 223.82 295.4C170.82 317.48 172.97 260.96 179.82 246.4C187.96 229.09 213.15 205.4 213.49 182.73L260.82 211.06Z" fill="#FFC100"/>
<path opacity="0.7" d="M260.82 211.06C260.82 211.06 284.82 270 223.82 295.4C170.82 317.48 172.97 260.96 179.82 246.4C187.96 229.09 213.15 205.4 213.49 182.73L260.82 211.06Z" fill="white"/>
<path d="M310.48 163.06C310.48 175.748 305.842 187.999 297.437 197.505C289.033 207.011 277.443 213.116 264.85 214.67C262.74 214.932 260.616 215.062 258.49 215.06C248.205 215.06 238.152 212.01 229.6 206.296C221.049 200.583 214.384 192.461 210.448 182.96C206.513 173.458 205.483 163.002 207.489 152.915C209.496 142.828 214.448 133.563 221.72 126.29C228.993 119.018 238.258 114.066 248.345 112.059C258.432 110.053 268.888 111.083 278.39 115.018C287.891 118.954 296.013 125.619 301.726 134.17C307.44 142.722 310.49 152.775 310.49 163.06H310.48Z" fill="#FFC100"/>
<path opacity="0.3" d="M310.48 163.06C310.48 175.748 305.842 187.999 297.437 197.505C289.033 207.011 277.443 213.116 264.85 214.67C262.74 214.932 260.616 215.062 258.49 215.06C248.205 215.06 238.152 212.01 229.6 206.296C221.049 200.583 214.384 192.461 210.448 182.96C206.513 173.458 205.483 163.002 207.489 152.915C209.496 142.828 214.448 133.563 221.72 126.29C228.993 119.018 238.258 114.066 248.345 112.059C258.432 110.053 268.888 111.083 278.39 115.018C287.891 118.954 296.013 125.619 301.726 134.17C307.44 142.722 310.49 152.775 310.49 163.06H310.48Z" fill="white"/>
<path d="M264.25 209.79C275.651 208.382 286.145 202.854 293.753 194.247C301.362 185.64 305.561 174.548 305.56 163.06V162.06C305.491 158.558 304.068 155.219 301.59 152.743C299.113 150.267 295.772 148.847 292.27 148.78H291.48C278.935 148.78 266.904 153.763 258.034 162.634C249.163 171.504 244.18 183.535 244.18 196.08V196.88C244.251 200.381 245.673 203.718 248.148 206.195C250.623 208.672 253.959 210.096 257.46 210.17H258.46C260.396 210.161 262.33 210.034 264.25 209.79Z" fill="#FFC100"/>
<path opacity="0.3" d="M264.25 209.79C275.651 208.382 286.145 202.854 293.753 194.247C301.362 185.64 305.561 174.548 305.56 163.06V162.06C305.491 158.558 304.068 155.219 301.59 152.743C299.113 150.267 295.772 148.847 292.27 148.78H291.48C278.935 148.78 266.904 153.763 258.034 162.634C249.163 171.504 244.18 183.535 244.18 196.08V196.88C244.251 200.381 245.673 203.718 248.148 206.195C250.623 208.672 253.959 210.096 257.46 210.17H258.46C260.396 210.161 262.33 210.034 264.25 209.79Z" fill="white"/>
<path d="M262.78 217.16C262.224 215.092 261.556 213.056 260.78 211.06L213.45 182.73C213.396 185.312 213.061 187.881 212.45 190.39L220.04 201.28L230.36 210.1L244.29 215.1L258.46 217.95L262.78 217.16Z" fill="#263238"/>
<path opacity="0.5" d="M262.78 217.16C262.224 215.092 261.556 213.056 260.78 211.06L213.45 182.73C213.396 185.312 213.061 187.881 212.45 190.39L220.04 201.28L230.36 210.1L244.29 215.1L258.46 217.95L262.78 217.16Z" fill="white"/>
<path d="M252.22 141.32C251.79 152.5 246.4 161.96 240.22 162.46C234.04 162.96 229.32 154.3 229.75 143.12C230.18 131.94 241.75 121.98 241.75 121.98C241.75 121.98 252.65 130.15 252.22 141.32Z" fill="#263238"/>
<path opacity="0.6" d="M252.22 141.32C251.79 152.5 246.4 161.96 240.22 162.46C234.04 162.96 229.32 154.3 229.75 143.12C230.18 131.94 241.75 121.98 241.75 121.98C241.75 121.98 252.65 130.15 252.22 141.32Z" fill="white"/>
<path opacity="0.2" d="M245.71 139.9C245.46 146.42 242.32 151.9 238.71 152.24C235.1 152.58 232.34 147.48 232.59 140.95C232.84 134.42 239.59 128.61 239.59 128.61C239.59 128.61 246 133.37 245.71 139.9Z" fill="black"/>
<path d="M277.75 153.68C269.61 161.2 265.94 171.48 269.56 176.68C273.18 181.88 282.7 179.93 290.84 172.42C298.98 164.91 299.04 149.42 299.04 149.42C299.04 149.42 285.89 146.17 277.75 153.68Z" fill="#FFC100"/>
<path opacity="0.2" d="M277.75 153.68C269.61 161.2 265.94 171.48 269.56 176.68C273.18 181.88 282.7 179.93 290.84 172.42C298.98 164.91 299.04 149.42 299.04 149.42C299.04 149.42 285.89 146.17 277.75 153.68Z" fill="black"/>
<path opacity="0.2" d="M280.18 155.74C275.43 160.13 273.29 166.13 275.4 169.14C277.51 172.15 283.08 171.05 287.83 166.66C292.58 162.27 292.61 153.25 292.61 153.25C292.61 153.25 284.94 151.35 280.18 155.74Z" fill="black"/>
<path d="M283.58 200.9L284.45 201.57C285.08 202.05 286.01 201.41 286 200.57C285.781 197.929 285.727 195.277 285.84 192.63C288.37 174.48 284.74 150.48 267.21 142.15C249.68 133.82 229.27 146.41 217.21 160.05C215.291 161.844 213.26 163.514 211.13 165.05C210.45 165.61 210.57 166.75 211.34 166.93L212.4 167.19L208.23 170.19C208.007 170.358 207.848 170.597 207.778 170.868C207.709 171.139 207.735 171.425 207.85 171.68L211.04 177.87L210.77 177.81C210.556 177.8 210.344 177.85 210.157 177.955C209.97 178.059 209.816 178.213 209.713 178.4C209.609 178.587 209.559 178.8 209.569 179.013C209.579 179.227 209.649 179.434 209.77 179.61C211.331 181.367 212.794 183.21 214.15 185.13C219.643 194.498 227.828 201.996 237.64 206.65C247.367 211.307 258.285 212.878 268.93 211.15C271.259 210.972 273.596 210.929 275.93 211.02C276.154 211.003 276.369 210.922 276.547 210.785C276.726 210.649 276.861 210.463 276.937 210.251C277.012 210.039 277.024 209.81 276.971 209.592C276.919 209.373 276.803 209.174 276.64 209.02L276.41 208.84L283.13 207.36C283.396 207.283 283.628 207.117 283.786 206.889C283.945 206.662 284.02 206.386 284 206.11L283.58 200.9Z" fill="#263238"/>
<path opacity="0.8" d="M283.58 200.9L284.45 201.57C285.08 202.05 286.01 201.41 286 200.57C285.781 197.929 285.727 195.277 285.84 192.63C288.37 174.48 284.74 150.48 267.21 142.15C249.68 133.82 229.27 146.41 217.21 160.05C215.291 161.844 213.26 163.514 211.13 165.05C210.45 165.61 210.57 166.75 211.34 166.93L212.4 167.19L208.23 170.19C208.007 170.358 207.848 170.597 207.778 170.868C207.709 171.139 207.735 171.425 207.85 171.68L211.04 177.87L210.77 177.81C210.556 177.8 210.344 177.85 210.157 177.955C209.97 178.059 209.816 178.213 209.713 178.4C209.609 178.587 209.559 178.8 209.569 179.013C209.579 179.227 209.649 179.434 209.77 179.61C211.331 181.367 212.794 183.21 214.15 185.13C219.643 194.498 227.828 201.996 237.64 206.65C247.367 211.307 258.285 212.878 268.93 211.15C271.259 210.972 273.596 210.929 275.93 211.02C276.154 211.003 276.369 210.922 276.547 210.785C276.726 210.649 276.861 210.463 276.937 210.251C277.012 210.039 277.024 209.81 276.971 209.592C276.919 209.373 276.803 209.174 276.64 209.02L276.41 208.84L283.13 207.36C283.396 207.283 283.628 207.117 283.786 206.889C283.945 206.662 284.02 206.386 284 206.11L283.58 200.9Z" fill="white"/>
<path d="M267.21 185.66C286.5 185.28 286.01 201.41 286 200.52C285.781 197.879 285.727 195.227 285.84 192.58C287.63 179.74 286.33 163.99 279.22 152.92C270.13 150.62 257.65 152.84 251.58 175.27C249.68 182.26 258.9 185.83 267.21 185.66ZM241 180C241 180 238.71 176 239.58 174.87C240.21 174.06 242.3 175.06 243.1 175.44C243.9 175.82 245.99 176.8 245.78 177.81C245.5 179.23 241 180 241 180Z" fill="#FFC100"/>
<path opacity="0.3" d="M241 180C241 180 238.71 176 239.58 174.87C240.21 174.06 242.3 175.06 243.1 175.44C243.9 175.82 245.99 176.8 245.78 177.81C245.5 179.23 241 180 241 180Z" fill="black"/>
<path d="M244.73 184.16C244.428 184.317 244.094 184.403 243.754 184.412C243.413 184.422 243.075 184.355 242.765 184.215C242.454 184.076 242.179 183.868 241.96 183.607C241.741 183.347 241.584 183.04 241.5 182.71C241.444 182.521 241.317 182.361 241.145 182.264C240.974 182.167 240.771 182.14 240.58 182.19C240.278 182.347 239.944 182.433 239.604 182.442C239.263 182.452 238.925 182.385 238.615 182.245C238.304 182.106 238.029 181.898 237.81 181.637C237.591 181.377 237.434 181.07 237.35 180.74C237.04 179.83 235.59 180.22 235.91 181.14C236.16 182.076 236.764 182.877 237.595 183.376C238.425 183.874 239.417 184.03 240.36 183.81C240.769 184.668 241.494 185.334 242.383 185.67C243.272 186.005 244.256 185.984 245.13 185.61C246 185.26 245.63 183.81 244.73 184.16ZM237.18 165.65C235.65 168.98 233.18 171.09 231.68 170.38C230.18 169.67 230.19 166.38 231.68 163.05C233.17 159.72 235.68 157.61 237.17 158.32C238.66 159.03 238.7 162.32 237.18 165.65Z" fill="#263238"/>
<path d="M236.1 162.39C235.5 163.69 234.53 164.53 233.94 164.24C233.35 163.95 233.35 162.68 233.94 161.37C234.53 160.06 235.51 159.23 236.1 159.51C236.69 159.79 236.7 161.08 236.1 162.39Z" fill="white"/>
<path d="M264.26 179C262.74 182.33 260.26 184.45 258.77 183.73C257.28 183.01 257.28 179.73 258.77 176.4C260.26 173.07 262.77 170.96 264.27 171.67C265.77 172.38 265.79 175.71 264.26 179Z" fill="#263238"/>
<path d="M263.18 175.78C262.58 177.08 261.62 177.92 261.03 177.63C260.44 177.34 260.44 176.07 261.03 174.76C261.62 173.45 262.6 172.62 263.19 172.9C263.78 173.18 263.78 174.47 263.18 175.78Z" fill="white"/>
<path d="M228 173.9C224.653 168.788 220.017 164.648 214.56 161.9C214.13 161.69 213.75 162.34 214.18 162.55C219.531 165.238 224.078 169.291 227.36 174.3C227.62 174.7 228.27 174.3 228 173.92V173.9ZM227.05 176.34C222.303 171.822 216.618 168.408 210.4 166.34C209.94 166.2 209.74 166.92 210.2 167.07C216.292 169.078 221.865 172.408 226.52 176.82C226.88 177.15 227.41 176.62 227.05 176.29V176.34ZM260.89 190.22C266.793 189.58 272.76 190.508 278.19 192.91C278.63 193.11 279.01 192.46 278.57 192.27C273.026 189.797 266.927 188.832 260.89 189.47C260.41 189.52 260.41 190.27 260.89 190.22ZM259.48 192.54C265.855 193.352 271.973 195.558 277.4 199C277.81 199.26 278.18 198.61 277.78 198.35C272.305 194.853 266.124 192.609 259.68 191.78C259.21 191.72 259.01 192.44 259.48 192.5V192.54Z" fill="#263238"/>
<path opacity="0.5" d="M234.57 154.87C236.401 153.489 238.69 152.86 240.97 153.11C241.91 153.25 242.32 151.81 241.37 151.66C238.698 151.301 235.991 151.985 233.81 153.57C233.04 154.13 233.81 155.43 234.57 154.87ZM267.42 166.26C268.992 167.931 269.859 170.145 269.84 172.44C269.84 173.44 271.31 173.44 271.34 172.44C271.354 169.749 270.329 167.156 268.48 165.2C267.82 164.49 266.76 165.55 267.42 166.26Z" fill="black"/>
<path opacity="0.3" d="M310.48 163.06C310.48 175.748 305.842 187.999 297.437 197.505C289.033 207.011 277.443 213.116 264.85 214.67C262.74 214.932 260.616 215.062 258.49 215.06C248.205 215.06 238.152 212.01 229.6 206.296C221.049 200.583 214.384 192.461 210.448 182.96C206.513 173.458 205.483 163.002 207.489 152.915C209.496 142.828 214.448 133.563 221.72 126.29C228.993 119.018 238.258 114.066 248.345 112.059C258.432 110.053 268.888 111.083 278.39 115.018C287.891 118.954 296.013 125.619 301.726 134.17C307.44 142.722 310.49 152.775 310.49 163.06H310.48Z" fill="#FFC100"/>
<path d="M179 161.1C178.121 161.022 177.305 160.611 176.72 159.95C176.583 159.784 176.465 159.603 176.37 159.41C176.28 159.23 176.37 159.41 176.31 159.24C176.276 159.098 176.197 158.971 176.086 158.878C175.974 158.784 175.835 158.729 175.69 158.72C175.557 159.445 175.513 160.184 175.56 160.92C176.467 161.875 177.689 162.472 179 162.6C180 162.73 180 161.23 179 161.1ZM182.33 156.24C181.924 155.618 181.681 154.903 181.623 154.162C181.565 153.421 181.695 152.678 182 152C182.032 151.922 182.049 151.839 182.049 151.755C182.049 151.671 182.032 151.588 182 151.51C181.417 151.72 180.851 151.977 180.31 152.28C180.041 153.141 179.991 154.057 180.166 154.942C180.34 155.828 180.734 156.655 181.31 157.35C181.9 158 183 157 182.33 156.24Z" fill="#FFC100"/>
<g opacity="0.2">
<path d="M179 161.1C178.121 161.022 177.305 160.611 176.72 159.95C176.583 159.784 176.465 159.603 176.37 159.41C176.28 159.23 176.37 159.41 176.31 159.24C176.276 159.098 176.197 158.971 176.086 158.878C175.974 158.784 175.835 158.729 175.69 158.72C175.557 159.445 175.513 160.184 175.56 160.92C176.467 161.875 177.689 162.472 179 162.6C180 162.73 180 161.23 179 161.1ZM182.33 156.24C181.924 155.618 181.681 154.903 181.623 154.162C181.565 153.421 181.695 152.678 182 152C182.032 151.922 182.049 151.839 182.049 151.755C182.049 151.671 182.032 151.588 182 151.51C181.417 151.72 180.851 151.977 180.31 152.28C180.041 153.141 179.991 154.057 180.166 154.942C180.34 155.828 180.734 156.655 181.31 157.35C181.9 158 183 157 182.33 156.24Z" fill="black"/>
</g>
<path d="M188.5 234.66C195.32 233.82 202.78 235.66 209.01 238.28C227.28 245.95 238.74 263.38 245.58 281.28C246.95 284.85 252.75 283.28 251.36 279.69C244.05 260.56 232.07 242.13 212.8 233.45C205.51 230.16 196.6 227.68 188.5 228.68C184.72 229.14 184.67 235.15 188.5 234.68V234.66ZM264.85 214.67C262.74 214.932 260.616 215.062 258.49 215.06C248.782 215.062 239.268 212.347 231.023 207.222C222.779 202.097 216.134 194.766 211.84 186.06C211.51 185.39 211.2 184.7 210.9 184.01C210.794 183.76 210.624 183.543 210.407 183.38C210.19 183.216 209.934 183.113 209.665 183.08C209.396 183.046 209.122 183.084 208.872 183.189C208.622 183.295 208.404 183.464 208.24 183.68C207.758 184.349 207.475 185.14 207.424 185.963C207.372 186.786 207.555 187.606 207.95 188.33C213.206 198.619 221.457 207.073 231.615 212.579C241.772 218.084 253.36 220.382 264.85 219.17C265.643 219.104 266.405 218.831 267.059 218.378C267.714 217.925 268.238 217.309 268.58 216.59C268.705 216.333 268.757 216.046 268.73 215.761C268.702 215.476 268.597 215.204 268.426 214.975C268.255 214.745 268.023 214.568 267.758 214.461C267.492 214.354 267.202 214.323 266.92 214.37C266.23 214.49 265.55 214.59 264.85 214.67Z" fill="#FFC100"/>
<path opacity="0.5" d="M276.33 120.93C273.653 119.61 270.849 118.568 267.96 117.82C267.733 117.76 267.495 117.755 267.266 117.806C267.037 117.857 266.824 117.963 266.644 118.114C266.465 118.265 266.324 118.457 266.235 118.674C266.145 118.891 266.109 119.126 266.13 119.36L266.35 121.8C266.378 122.122 266.513 122.426 266.735 122.661C266.956 122.897 267.25 123.052 267.57 123.1C270.071 123.505 272.533 124.121 274.93 124.94C275.129 125.014 275.341 125.043 275.552 125.025C275.763 125.008 275.968 124.945 276.151 124.84C276.335 124.735 276.494 124.591 276.617 124.419C276.739 124.246 276.822 124.048 276.86 123.84L277.11 122.5C277.171 122.189 277.127 121.866 276.986 121.583C276.845 121.299 276.615 121.069 276.33 120.93ZM258.05 120L257.53 118.61C257.334 118.108 256.983 117.681 256.528 117.392C256.073 117.102 255.538 116.965 255 117C247.02 117.525 239.326 120.176 232.717 124.678C226.108 129.181 220.824 135.37 217.415 142.604C214.006 149.838 212.595 157.853 213.329 165.816C214.063 173.78 216.916 181.401 221.59 187.89L221.5 187.72C218.346 181.315 216.765 174.251 216.888 167.113C217.011 159.974 218.835 152.969 222.209 146.677C225.582 140.385 230.407 134.988 236.284 130.935C242.161 126.881 248.92 124.288 256 123.37C256.376 123.323 256.737 123.191 257.055 122.985C257.373 122.779 257.641 122.503 257.838 122.179C258.035 121.856 258.156 121.491 258.193 121.114C258.23 120.737 258.181 120.356 258.05 120Z" fill="white"/>
<path d="M206.9 250.64C206.9 250.64 218.09 211.26 197.9 217.77C175.65 224.95 192.79 237.66 184.41 259.6C178.66 274.6 188.33 273.94 194.98 272.02C194.98 272.02 176.62 306.02 205.98 296.72C235.34 287.42 237.65 265.95 230.65 254.34C223.65 242.73 206.9 250.64 206.9 250.64Z" fill="#FFC100"/>
<path opacity="0.5" d="M206.9 250.64C206.9 250.64 218.09 211.26 197.9 217.77C175.65 224.95 192.79 237.66 184.41 259.6C178.66 274.6 188.33 273.94 194.98 272.02C194.98 272.02 176.62 306.02 205.98 296.72C235.34 287.42 237.65 265.95 230.65 254.34C223.65 242.73 206.9 250.64 206.9 250.64Z" fill="white"/>
<path d="M193.34 219.61C178.34 227.05 192.16 239.42 184.45 259.61C183.323 262.18 182.734 264.954 182.72 267.76C182.94 268.31 189.83 284.76 201.51 249.08C213 214.08 194.66 219.2 193.34 219.61Z" fill="#FFC100"/>
<path opacity="0.2" d="M193.34 219.61C178.34 227.05 192.16 239.42 184.45 259.61C183.323 262.18 182.734 264.954 182.72 267.76C182.94 268.31 189.83 284.76 201.51 249.08C213 214.08 194.66 219.2 193.34 219.61Z" fill="white"/>
<g opacity="0.5">
<path d="M189 229L200.79 224.65C201.69 224.32 201.3 222.87 200.39 223.21L188.6 227.55C187.71 227.88 188.09 229.33 189 229ZM189 236.08L200.79 231.73C201.69 231.4 201.3 229.95 200.39 230.29L188.6 234.63C187.71 234.96 188.09 236.42 189 236.08ZM189.32 243.18L201.11 238.83C202.01 238.5 201.62 237.05 200.71 237.39L188.93 241.73C188.03 242.07 188.42 243.52 189.32 243.18ZM189.41 251L199.19 247.4C200.09 247.06 199.7 245.61 198.79 245.95L189.01 249.55C188.11 249.89 188.5 251.34 189.41 251ZM187.42 259.07L195.95 255.93C196.85 255.59 196.46 254.14 195.55 254.48L187 257.63C186.1 257.96 186.49 259.41 187.4 259.07H187.42ZM185.06 266.35L193.59 263.2C194.49 262.87 194.1 261.42 193.19 261.75L184.66 264.9C183.76 265.23 184.15 266.68 185.06 266.35Z" fill="white"/>
</g>
<path d="M206.9 250.64C206.9 250.64 223.66 242.72 230.66 254.34C237.66 265.96 235.33 287.39 205.99 296.72C192.93 300.88 189.33 296.43 189.35 290.23C188.71 297.54 191.94 303.37 206.76 298.65C237.57 288.85 240.02 266.33 232.67 254.13C225.32 241.93 207.72 250.25 207.72 250.25L206.9 250.64Z" fill="#FFC100"/>
<path opacity="0.2" d="M206.9 250.64C206.9 250.64 223.66 242.72 230.66 254.34C237.66 265.96 235.33 287.39 205.99 296.72C192.93 300.88 189.33 296.43 189.35 290.23C188.71 297.54 191.94 303.37 206.76 298.65C237.57 288.85 240.02 266.33 232.67 254.13C225.32 241.93 207.72 250.25 207.72 250.25L206.9 250.64Z" fill="white"/>
<path d="M206.88 248.66C204.389 257.01 199.978 264.66 194 271C192.67 272.4 194.79 274.52 196.12 273.12C202.473 266.428 207.166 258.337 209.82 249.5C210.36 247.64 207.46 246.85 206.92 248.7L206.88 248.66Z" fill="#FFC100"/>
<g opacity="0.2">
<path d="M206.88 248.66C204.389 257.01 199.978 264.66 194 271C192.67 272.4 194.79 274.52 196.12 273.12C202.473 266.428 207.166 258.337 209.82 249.5C210.36 247.64 207.46 246.85 206.92 248.7L206.88 248.66Z" fill="white"/>
</g>
<path d="M260.65 224.82C253.84 222.25 250.32 220.43 240.9 207.37C229.2 191.15 206.44 217.37 210.79 224.47C215.14 231.57 229.07 234.95 230.79 220.36L231.95 220.43C231.95 220.43 235.95 231.28 238.79 237.17C244.42 248.82 259.09 253.42 265.48 243.58C268.22 239.31 269.58 228.2 260.65 224.82Z" fill="#FFC100"/>
<path d="M260.65 224.82C253.84 222.25 250.32 220.43 240.9 207.37C229.2 191.15 206.44 217.37 210.79 224.47C215.14 231.57 229.07 234.95 230.79 220.36L231.95 220.43C231.95 220.43 235.95 231.28 238.79 237.17C244.42 248.82 259.09 253.42 265.48 243.58C268.22 239.31 269.58 228.2 260.65 224.82Z" fill="#FFC100"/>
<path opacity="0.5" d="M260.65 224.82C253.84 222.25 250.32 220.43 240.9 207.37C229.2 191.15 206.44 217.37 210.79 224.47C215.14 231.57 229.07 234.95 230.79 220.36L231.95 220.43C231.95 220.43 235.95 231.28 238.79 237.17C244.42 248.82 259.09 253.42 265.48 243.58C268.22 239.31 269.58 228.2 260.65 224.82Z" fill="white"/>
<path d="M260.65 224.82C270.48 228.52 266.8 240.17 263.58 244.05C258.93 249.67 254.38 250.05 250.27 247.77C254.5 251.77 259.72 252.28 265.96 245.59C270.37 240.86 272.44 225.37 260.65 224.82Z" fill="#FFC100"/>
<path opacity="0.2" d="M260.65 224.82C270.48 228.52 266.8 240.17 263.58 244.05C258.93 249.67 254.38 250.05 250.27 247.77C254.5 251.77 259.72 252.28 265.96 245.59C270.37 240.86 272.44 225.37 260.65 224.82Z" fill="white"/>
<path d="M228.16 203.15C229.701 205.632 230.695 208.415 231.076 211.312C231.457 214.209 231.217 217.153 230.37 219.95C229.98 221.33 232.04 222.23 232.44 220.85C234.28 214.51 233.68 207.39 229.95 201.79C229.14 200.59 227.35 201.95 228.16 203.15Z" fill="#FFC100"/>
<g opacity="0.2">
<path d="M228.16 203.15C229.701 205.632 230.695 208.415 231.076 211.312C231.457 214.209 231.217 217.153 230.37 219.95C229.98 221.33 232.04 222.23 232.44 220.85C234.28 214.51 233.68 207.39 229.95 201.79C229.14 200.59 227.35 201.95 228.16 203.15Z" fill="white"/>
</g>
<path d="M214.79 219C213.882 219.992 213.187 221.16 212.747 222.431C212.307 223.701 212.131 225.049 212.23 226.39C212.613 226.789 213.02 227.163 213.45 227.51C213.552 227.438 213.633 227.339 213.684 227.225C213.735 227.11 213.754 226.984 213.74 226.86C213.55 224.58 214.04 221.86 215.74 220.19C216.39 219.5 215.48 218.3 214.79 219ZM220.62 222.06C219.505 222.988 218.635 224.175 218.086 225.518C217.537 226.86 217.325 228.317 217.47 229.76C217.98 229.947 218.501 230.1 219.03 230.22C219.035 230.187 219.035 230.153 219.03 230.12C218.802 228.854 218.914 227.55 219.355 226.341C219.796 225.132 220.55 224.062 221.54 223.24C222.27 222.62 221.36 221.43 220.62 222.06Z" fill="#FFC100"/>
<g opacity="0.2">
<path d="M214.79 219C213.882 219.992 213.187 221.16 212.747 222.431C212.307 223.701 212.131 225.049 212.23 226.39C212.613 226.789 213.02 227.163 213.45 227.51C213.552 227.438 213.633 227.339 213.684 227.225C213.735 227.11 213.754 226.984 213.74 226.86C213.55 224.58 214.04 221.86 215.74 220.19C216.39 219.5 215.48 218.3 214.79 219ZM220.62 222.06C219.505 222.988 218.635 224.175 218.086 225.518C217.537 226.86 217.325 228.317 217.47 229.76C217.98 229.947 218.501 230.1 219.03 230.22C219.035 230.187 219.035 230.153 219.03 230.12C218.802 228.854 218.914 227.55 219.355 226.341C219.796 225.132 220.55 224.062 221.54 223.24C222.27 222.62 221.36 221.43 220.62 222.06Z" fill="black"/>
</g>
<path d="M254.86 227.51L261.6 230.27C261.928 232.519 261.722 234.814 260.997 236.969C260.273 239.123 259.051 241.076 257.43 242.67C257.43 242.67 254.18 242.91 249.56 238.11C249.56 238.11 254.55 233.85 254.86 227.51Z" fill="white"/>
<path d="M255.62 237.3C255.281 237.131 254.999 236.866 254.812 236.537C254.624 236.208 254.538 235.831 254.565 235.453C254.592 235.075 254.731 234.714 254.963 234.415C255.196 234.117 255.513 233.894 255.872 233.775C256.232 233.657 256.619 233.648 256.984 233.75C257.348 233.852 257.675 234.06 257.921 234.348C258.167 234.635 258.322 234.99 258.367 235.366C258.411 235.742 258.343 236.123 258.17 236.46C257.943 236.909 257.547 237.25 257.069 237.407C256.591 237.565 256.07 237.526 255.62 237.3Z" fill="#FFC100"/>
<path d="M256 237.44L255.75 237.35C255.3 238.06 254.95 238.5 254.83 238.44C254.71 238.38 255.14 236.95 255.97 235.33C256.8 233.71 257.61 232.48 257.81 232.58C258.01 232.68 257.81 233.18 257.47 233.96L257.69 234.11C258.5 232.32 258.93 230.96 258.69 230.84C258.45 230.72 257.07 232.65 255.76 235.22C254.45 237.79 253.64 240.02 253.95 240.22C254.26 240.42 255 239.15 256 237.44Z" fill="#FFC100"/>
<path opacity="0.4" d="M256 237.44L255.75 237.35C255.3 238.06 254.95 238.5 254.83 238.44C254.71 238.38 255.14 236.95 255.97 235.33C256.8 233.71 257.61 232.48 257.81 232.58C258.01 232.68 257.81 233.18 257.47 233.96L257.69 234.11C258.5 232.32 258.93 230.96 258.69 230.84C258.45 230.72 257.07 232.65 255.76 235.22C254.45 237.79 253.64 240.02 253.95 240.22C254.26 240.42 255 239.15 256 237.44Z" fill="white"/>
<path opacity="0.3" d="M143.71 190C138.918 195.675 135.191 202.169 132.71 209.17C129.4 210.75 124.35 191.6 125.64 181.93C127.753 180.144 129.973 178.491 132.29 176.98H132.35C133.684 176.096 135.25 175.626 136.85 175.63H137.22C138.867 175.67 140.469 176.175 141.841 177.085C143.214 177.995 144.302 179.275 144.98 180.776C145.658 182.277 145.899 183.939 145.674 185.571C145.449 187.203 144.768 188.738 143.71 190ZM136.29 258.68C135.971 258.895 135.595 259.01 135.21 259.01C135.117 259.02 135.023 259.02 134.93 259.01C121.31 257.13 108.23 247.76 101.86 235.64L101.95 229.27C102.298 229.257 102.644 229.335 102.952 229.496C103.261 229.657 103.522 229.897 103.71 230.19L104.27 231.05C104.489 231.378 104.6 231.766 104.59 232.16C109.89 243.65 121.83 252.77 134.45 254.89C135 256.15 135.63 257.42 136.29 258.68ZM168.58 287.51C168.463 287.835 168.259 288.122 167.99 288.34C162.048 293.162 154.81 296.114 147.19 296.82C144.692 295.969 142.247 294.967 139.87 293.82C140.063 293.526 140.33 293.288 140.644 293.13C140.958 292.972 141.309 292.899 141.66 292.92C149.927 293.392 158.089 290.879 164.66 285.84C166 286.45 167.27 287 168.58 287.51Z" fill="#FFC100"/>
<path d="M191.848 93.0911C194.875 72.4186 180.57 53.2065 159.898 50.1796C139.225 47.1528 120.013 61.4574 116.986 82.1299C113.959 102.802 128.264 122.015 148.936 125.041C169.609 128.068 188.821 113.764 191.848 93.0911Z" fill="#FFC100"/>
<path opacity="0.6" d="M191.848 93.0911C194.875 72.4186 180.57 53.2065 159.898 50.1796C139.225 47.1528 120.013 61.4574 116.986 82.1299C113.959 102.802 128.264 122.015 148.936 125.041C169.609 128.068 188.821 113.764 191.848 93.0911Z" fill="white"/>
<path opacity="0.2" d="M175.7 56.33C174.78 61.33 171.24 65.93 169.3 71.33C166.89 78.04 172.55 82.33 166.97 93.39C161.39 104.45 154.81 103.69 151.11 109C148.55 112.66 143.45 119.19 140.57 122.85C146.805 125.289 153.575 126.031 160.19 125C164.34 120.11 172.19 113 170.6 112.14C168.3 110.87 162.74 118.56 160.19 117.22C157.64 115.88 162.19 112.75 172.49 105.31C182.79 97.87 182.08 84 182.83 76.74C183.174 73.4013 184.437 70.2234 186.48 67.56C183.71 63.1053 180.038 59.2799 175.7 56.33Z" fill="#FFC100"/>
<path opacity="0.2" d="M175.7 56.33C174.78 61.33 171.24 65.93 169.3 71.33C166.89 78.04 172.55 82.33 166.97 93.39C161.39 104.45 154.81 103.69 151.11 109C148.55 112.66 143.45 119.19 140.57 122.85C146.805 125.289 153.575 126.031 160.19 125C164.34 120.11 172.19 113 170.6 112.14C168.3 110.87 162.74 118.56 160.19 117.22C157.64 115.88 162.19 112.75 172.49 105.31C182.79 97.87 182.08 84 182.83 76.74C183.174 73.4013 184.437 70.2234 186.48 67.56C183.71 63.1053 180.038 59.2799 175.7 56.33ZM132.4 82C133.79 82.26 134.55 84.38 134.1 86.74C133.65 89.1 132.16 90.74 130.78 90.52C129.4 90.3 128.63 88.13 129.08 85.78C129.53 83.43 131 81.77 132.4 82Z" fill="black"/>
<path d="M157.08 49.88C151.78 63.93 144.08 59.88 139.7 70.4C135.13 81.25 145.48 81.27 136.7 95.05C130.6 104.64 126.24 108.72 124.15 110.32C126.239 113.115 128.709 115.602 131.49 117.71C133.41 116.38 137.02 113.27 141.49 106.5C148.23 96.35 150.81 101.42 157.1 92.19C163.39 82.96 156.03 76.1 160.39 67.19C162.87 62.11 165.78 56.7 167.28 52.1C163.998 50.8943 160.566 50.1473 157.08 49.88ZM152.67 80.93C152.02 84.36 149.86 86.82 147.84 86.44C145.82 86.06 144.72 82.97 145.37 79.54C146.02 76.11 148.19 73.66 150.21 74.04C152.23 74.42 153.33 77.51 152.67 80.93ZM180.44 103.29C181.61 104.08 181.44 106.29 180.13 108.29C178.82 110.29 176.76 111.29 175.59 110.46C174.42 109.63 174.59 107.46 175.9 105.46C177.21 103.46 179.27 102.5 180.44 103.29Z" fill="#FFC100"/>
<g opacity="0.3">
<path d="M157.08 49.88C151.78 63.93 144.08 59.88 139.7 70.4C135.13 81.25 145.48 81.27 136.7 95.05C130.6 104.64 126.24 108.72 124.15 110.32C126.239 113.115 128.709 115.602 131.49 117.71C133.41 116.38 137.02 113.27 141.49 106.5C148.23 96.35 150.81 101.42 157.1 92.19C163.39 82.96 156.03 76.1 160.39 67.19C162.87 62.11 165.78 56.7 167.28 52.1C163.998 50.8943 160.566 50.1473 157.08 49.88ZM152.67 80.93C152.02 84.36 149.86 86.82 147.84 86.44C145.82 86.06 144.72 82.97 145.37 79.54C146.02 76.11 148.19 73.66 150.21 74.04C152.23 74.42 153.33 77.51 152.67 80.93ZM180.44 103.29C181.61 104.08 181.44 106.29 180.13 108.29C178.82 110.29 176.76 111.29 175.59 110.46C174.42 109.63 174.59 107.46 175.9 105.46C177.21 103.46 179.27 102.5 180.44 103.29Z" fill="white"/>
</g>
<path d="M185.45 66C185.97 66.76 186.45 67.53 186.96 68.34C187.17 68.69 187.35 69.05 187.54 69.4C191.68 68 194.36 67.65 194.95 68.64C196.6 71.44 180.79 83.87 159.63 96.41C138.47 108.95 120 116.85 118.31 114.05C117.72 113.05 119.31 110.89 122.53 107.93C122.32 107.59 122.08 107.26 121.87 106.93C121.4 106.12 120.97 105.3 120.55 104.48C103.27 116.68 92.7 126.48 94.48 129.48C97.2 134.06 127.48 121.13 162.12 100.6C196.76 80.07 222.64 59.71 219.93 55.13C218.14 52.14 204.46 56.69 185.45 66Z" fill="#FFC100"/>
</g>
<defs>
<clipPath id="clip0_1_2">
<rect width="500" height="362" fill="white"/>
</clipPath>
</defs>
</svg>
